<mxfile host="Electron" modified="2023-11-16T17:48:52.693Z" agent="Mozilla/5.0 (Windows NT 10.0; Win64; x64) AppleWebKit/537.36 (KHTML, like Gecko) draw.io/21.1.2 Chrome/106.0.5249.199 Electron/21.4.3 Safari/537.36" etag="jpNjOhzBpuhuQZHM8_uy" version="21.1.2" type="device">
  <diagram name="Página-1" id="PsUgffbDiJnGug-l5z7P">
    <mxGraphModel dx="2895" dy="1022" grid="1" gridSize="10" guides="1" tooltips="1" connect="1" arrows="1" fold="1" page="1" pageScale="1" pageWidth="827" pageHeight="1169" math="0" shadow="0">
      <root>
        <mxCell id="0" />
        <mxCell id="1" parent="0" />
        <mxCell id="QIrvTC7RfS_J8TlOLp5B-1" value="AWS Cloud" style="points=[[0,0],[0.25,0],[0.5,0],[0.75,0],[1,0],[1,0.25],[1,0.5],[1,0.75],[1,1],[0.75,1],[0.5,1],[0.25,1],[0,1],[0,0.75],[0,0.5],[0,0.25]];outlineConnect=0;gradientColor=none;html=1;whiteSpace=wrap;fontSize=12;fontStyle=0;container=1;pointerEvents=0;collapsible=0;recursiveResize=0;shape=mxgraph.aws4.group;grIcon=mxgraph.aws4.group_aws_cloud_alt;strokeColor=#232F3E;fillColor=none;verticalAlign=top;align=left;spacingLeft=30;fontColor=#232F3E;dashed=0;" parent="1" vertex="1">
          <mxGeometry x="110" y="280" width="670" height="840" as="geometry" />
        </mxCell>
        <mxCell id="QIrvTC7RfS_J8TlOLp5B-2" value="DataWarehouse&lt;br&gt;Cobranca/Renegociacao" style="sketch=0;points=[[0,0,0],[0.25,0,0],[0.5,0,0],[0.75,0,0],[1,0,0],[0,1,0],[0.25,1,0],[0.5,1,0],[0.75,1,0],[1,1,0],[0,0.25,0],[0,0.5,0],[0,0.75,0],[1,0.25,0],[1,0.5,0],[1,0.75,0]];outlineConnect=0;fontColor=#232F3E;gradientColor=#945DF2;gradientDirection=north;fillColor=#5A30B5;strokeColor=#ffffff;dashed=0;verticalLabelPosition=bottom;verticalAlign=top;align=center;html=1;fontSize=12;fontStyle=0;aspect=fixed;shape=mxgraph.aws4.resourceIcon;resIcon=mxgraph.aws4.redshift;" parent="QIrvTC7RfS_J8TlOLp5B-1" vertex="1">
          <mxGeometry x="474.32000000000005" y="715" width="60" height="60" as="geometry" />
        </mxCell>
        <mxCell id="QIrvTC7RfS_J8TlOLp5B-4" style="edgeStyle=orthogonalEdgeStyle;rounded=0;orthogonalLoop=1;jettySize=auto;html=1;entryX=0.5;entryY=0;entryDx=0;entryDy=0;entryPerimeter=0;exitX=0.5;exitY=1;exitDx=0;exitDy=0;exitPerimeter=0;" parent="QIrvTC7RfS_J8TlOLp5B-1" source="QIrvTC7RfS_J8TlOLp5B-3" target="QIrvTC7RfS_J8TlOLp5B-2" edge="1">
          <mxGeometry relative="1" as="geometry" />
        </mxCell>
        <mxCell id="vHoobKAGo53R7YxeHOst-10" style="edgeStyle=orthogonalEdgeStyle;rounded=0;orthogonalLoop=1;jettySize=auto;html=1;" parent="QIrvTC7RfS_J8TlOLp5B-1" source="QIrvTC7RfS_J8TlOLp5B-3" target="vHoobKAGo53R7YxeHOst-7" edge="1">
          <mxGeometry relative="1" as="geometry">
            <Array as="points">
              <mxPoint x="314" y="560" />
              <mxPoint x="424" y="560" />
              <mxPoint x="424" y="545" />
              <mxPoint x="425" y="545" />
            </Array>
          </mxGeometry>
        </mxCell>
        <mxCell id="vHoobKAGo53R7YxeHOst-57" style="edgeStyle=orthogonalEdgeStyle;rounded=0;orthogonalLoop=1;jettySize=auto;html=1;entryX=0.5;entryY=0;entryDx=0;entryDy=0;entryPerimeter=0;" parent="QIrvTC7RfS_J8TlOLp5B-1" source="QIrvTC7RfS_J8TlOLp5B-3" target="vHoobKAGo53R7YxeHOst-23" edge="1">
          <mxGeometry relative="1" as="geometry">
            <Array as="points">
              <mxPoint x="314.32" y="695" />
              <mxPoint x="133.32" y="695" />
            </Array>
          </mxGeometry>
        </mxCell>
        <mxCell id="vHoobKAGo53R7YxeHOst-91" style="edgeStyle=orthogonalEdgeStyle;rounded=0;orthogonalLoop=1;jettySize=auto;html=1;entryX=0.5;entryY=1;entryDx=0;entryDy=0;entryPerimeter=0;" parent="QIrvTC7RfS_J8TlOLp5B-1" source="QIrvTC7RfS_J8TlOLp5B-3" target="vHoobKAGo53R7YxeHOst-83" edge="1">
          <mxGeometry relative="1" as="geometry">
            <Array as="points">
              <mxPoint x="314" y="560" />
              <mxPoint x="282" y="560" />
            </Array>
          </mxGeometry>
        </mxCell>
        <mxCell id="vHoobKAGo53R7YxeHOst-92" style="edgeStyle=orthogonalEdgeStyle;rounded=0;orthogonalLoop=1;jettySize=auto;html=1;entryX=0.5;entryY=1;entryDx=0;entryDy=0;entryPerimeter=0;" parent="QIrvTC7RfS_J8TlOLp5B-1" source="QIrvTC7RfS_J8TlOLp5B-3" target="vHoobKAGo53R7YxeHOst-87" edge="1">
          <mxGeometry relative="1" as="geometry">
            <Array as="points">
              <mxPoint x="314" y="560" />
              <mxPoint x="126" y="560" />
            </Array>
          </mxGeometry>
        </mxCell>
        <mxCell id="QIrvTC7RfS_J8TlOLp5B-3" value="ETL / ELT" style="sketch=0;points=[[0,0,0],[0.25,0,0],[0.5,0,0],[0.75,0,0],[1,0,0],[0,1,0],[0.25,1,0],[0.5,1,0],[0.75,1,0],[1,1,0],[0,0.25,0],[0,0.5,0],[0,0.75,0],[1,0.25,0],[1,0.5,0],[1,0.75,0]];outlineConnect=0;fontColor=#232F3E;gradientColor=#945DF2;gradientDirection=north;fillColor=#5A30B5;strokeColor=#ffffff;dashed=0;verticalLabelPosition=bottom;verticalAlign=top;align=center;html=1;fontSize=12;fontStyle=0;aspect=fixed;shape=mxgraph.aws4.resourceIcon;resIcon=mxgraph.aws4.glue;" parent="QIrvTC7RfS_J8TlOLp5B-1" vertex="1">
          <mxGeometry x="284.32" y="615" width="60" height="60" as="geometry" />
        </mxCell>
        <mxCell id="vHoobKAGo53R7YxeHOst-11" style="edgeStyle=orthogonalEdgeStyle;rounded=0;orthogonalLoop=1;jettySize=auto;html=1;" parent="QIrvTC7RfS_J8TlOLp5B-1" edge="1">
          <mxGeometry relative="1" as="geometry">
            <mxPoint x="123.5" y="372.99999999999955" as="sourcePoint" />
            <mxPoint x="123.42857142857156" y="468" as="targetPoint" />
          </mxGeometry>
        </mxCell>
        <mxCell id="vHoobKAGo53R7YxeHOst-63" style="edgeStyle=orthogonalEdgeStyle;rounded=0;orthogonalLoop=1;jettySize=auto;html=1;" parent="QIrvTC7RfS_J8TlOLp5B-1" target="QIrvTC7RfS_J8TlOLp5B-20" edge="1">
          <mxGeometry relative="1" as="geometry">
            <mxPoint x="123.42857142857156" y="315" as="sourcePoint" />
          </mxGeometry>
        </mxCell>
        <mxCell id="vHoobKAGo53R7YxeHOst-7" value="RDS Renegociação" style="sketch=0;points=[[0,0,0],[0.25,0,0],[0.5,0,0],[0.75,0,0],[1,0,0],[0,1,0],[0.25,1,0],[0.5,1,0],[0.75,1,0],[1,1,0],[0,0.25,0],[0,0.5,0],[0,0.75,0],[1,0.25,0],[1,0.5,0],[1,0.75,0]];outlineConnect=0;fontColor=#232F3E;gradientColor=#4D72F3;gradientDirection=north;fillColor=#3334B9;strokeColor=#ffffff;dashed=0;verticalLabelPosition=bottom;verticalAlign=top;align=center;html=1;fontSize=12;fontStyle=0;aspect=fixed;shape=mxgraph.aws4.resourceIcon;resIcon=mxgraph.aws4.rds;" parent="QIrvTC7RfS_J8TlOLp5B-1" vertex="1">
          <mxGeometry x="395.32" y="468" width="60" height="60" as="geometry" />
        </mxCell>
        <mxCell id="vHoobKAGo53R7YxeHOst-12" style="edgeStyle=orthogonalEdgeStyle;rounded=0;orthogonalLoop=1;jettySize=auto;html=1;" parent="QIrvTC7RfS_J8TlOLp5B-1" source="vHoobKAGo53R7YxeHOst-9" target="vHoobKAGo53R7YxeHOst-7" edge="1">
          <mxGeometry relative="1" as="geometry" />
        </mxCell>
        <mxCell id="vHoobKAGo53R7YxeHOst-76" style="edgeStyle=orthogonalEdgeStyle;rounded=0;orthogonalLoop=1;jettySize=auto;html=1;entryX=0;entryY=0.5;entryDx=0;entryDy=0;entryPerimeter=0;" parent="QIrvTC7RfS_J8TlOLp5B-1" source="vHoobKAGo53R7YxeHOst-9" target="vHoobKAGo53R7YxeHOst-33" edge="1">
          <mxGeometry relative="1" as="geometry">
            <Array as="points">
              <mxPoint x="434.32000000000005" y="60" />
            </Array>
          </mxGeometry>
        </mxCell>
        <mxCell id="vHoobKAGo53R7YxeHOst-9" value="EKS - Renegociação" style="sketch=0;points=[[0,0,0],[0.25,0,0],[0.5,0,0],[0.75,0,0],[1,0,0],[0,1,0],[0.25,1,0],[0.5,1,0],[0.75,1,0],[1,1,0],[0,0.25,0],[0,0.5,0],[0,0.75,0],[1,0.25,0],[1,0.5,0],[1,0.75,0]];outlineConnect=0;fontColor=#232F3E;gradientColor=#F78E04;gradientDirection=north;fillColor=#D05C17;strokeColor=#ffffff;dashed=0;verticalLabelPosition=bottom;verticalAlign=top;align=center;html=1;fontSize=12;fontStyle=0;aspect=fixed;shape=mxgraph.aws4.resourceIcon;resIcon=mxgraph.aws4.eks_cloud;" parent="QIrvTC7RfS_J8TlOLp5B-1" vertex="1">
          <mxGeometry x="396.32" y="315" width="58" height="58" as="geometry" />
        </mxCell>
        <mxCell id="vHoobKAGo53R7YxeHOst-77" style="edgeStyle=orthogonalEdgeStyle;rounded=0;orthogonalLoop=1;jettySize=auto;html=1;entryX=0;entryY=0.5;entryDx=0;entryDy=0;entryPerimeter=0;" parent="QIrvTC7RfS_J8TlOLp5B-1" source="vHoobKAGo53R7YxeHOst-16" target="vHoobKAGo53R7YxeHOst-33" edge="1">
          <mxGeometry relative="1" as="geometry">
            <Array as="points">
              <mxPoint x="574.32" y="295" />
              <mxPoint x="554.32" y="295" />
              <mxPoint x="554.32" y="60" />
            </Array>
          </mxGeometry>
        </mxCell>
        <mxCell id="vHoobKAGo53R7YxeHOst-16" value="EKS - Pagamentos" style="sketch=0;points=[[0,0,0],[0.25,0,0],[0.5,0,0],[0.75,0,0],[1,0,0],[0,1,0],[0.25,1,0],[0.5,1,0],[0.75,1,0],[1,1,0],[0,0.25,0],[0,0.5,0],[0,0.75,0],[1,0.25,0],[1,0.5,0],[1,0.75,0]];outlineConnect=0;fontColor=#232F3E;gradientColor=#F78E04;gradientDirection=north;fillColor=#D05C17;strokeColor=#ffffff;dashed=0;verticalLabelPosition=bottom;verticalAlign=top;align=center;html=1;fontSize=12;fontStyle=0;aspect=fixed;shape=mxgraph.aws4.resourceIcon;resIcon=mxgraph.aws4.eks_cloud;" parent="QIrvTC7RfS_J8TlOLp5B-1" vertex="1">
          <mxGeometry x="545.32" y="315" width="58" height="58" as="geometry" />
        </mxCell>
        <mxCell id="vHoobKAGo53R7YxeHOst-14" value="RDS Pagamentos" style="sketch=0;points=[[0,0,0],[0.25,0,0],[0.5,0,0],[0.75,0,0],[1,0,0],[0,1,0],[0.25,1,0],[0.5,1,0],[0.75,1,0],[1,1,0],[0,0.25,0],[0,0.5,0],[0,0.75,0],[1,0.25,0],[1,0.5,0],[1,0.75,0]];outlineConnect=0;fontColor=#232F3E;gradientColor=#4D72F3;gradientDirection=north;fillColor=#3334B9;strokeColor=#ffffff;dashed=0;verticalLabelPosition=bottom;verticalAlign=top;align=center;html=1;fontSize=12;fontStyle=0;aspect=fixed;shape=mxgraph.aws4.resourceIcon;resIcon=mxgraph.aws4.rds;" parent="QIrvTC7RfS_J8TlOLp5B-1" vertex="1">
          <mxGeometry x="544.32" y="468" width="60" height="60" as="geometry" />
        </mxCell>
        <mxCell id="vHoobKAGo53R7YxeHOst-15" style="edgeStyle=orthogonalEdgeStyle;rounded=0;orthogonalLoop=1;jettySize=auto;html=1;" parent="QIrvTC7RfS_J8TlOLp5B-1" source="QIrvTC7RfS_J8TlOLp5B-3" target="vHoobKAGo53R7YxeHOst-14" edge="1">
          <mxGeometry relative="1" as="geometry">
            <Array as="points">
              <mxPoint x="314" y="560" />
              <mxPoint x="574" y="560" />
            </Array>
          </mxGeometry>
        </mxCell>
        <mxCell id="vHoobKAGo53R7YxeHOst-18" style="edgeStyle=orthogonalEdgeStyle;rounded=0;orthogonalLoop=1;jettySize=auto;html=1;" parent="QIrvTC7RfS_J8TlOLp5B-1" source="vHoobKAGo53R7YxeHOst-16" target="vHoobKAGo53R7YxeHOst-14" edge="1">
          <mxGeometry relative="1" as="geometry" />
        </mxCell>
        <mxCell id="vHoobKAGo53R7YxeHOst-23" value="Bucket S3&amp;nbsp;&lt;br&gt;Recebimento de arquivos" style="sketch=0;points=[[0,0,0],[0.25,0,0],[0.5,0,0],[0.75,0,0],[1,0,0],[0,1,0],[0.25,1,0],[0.5,1,0],[0.75,1,0],[1,1,0],[0,0.25,0],[0,0.5,0],[0,0.75,0],[1,0.25,0],[1,0.5,0],[1,0.75,0]];outlineConnect=0;fontColor=#232F3E;gradientColor=#60A337;gradientDirection=north;fillColor=#277116;strokeColor=#ffffff;dashed=0;verticalLabelPosition=bottom;verticalAlign=top;align=center;html=1;fontSize=12;fontStyle=0;aspect=fixed;shape=mxgraph.aws4.resourceIcon;resIcon=mxgraph.aws4.s3;" parent="QIrvTC7RfS_J8TlOLp5B-1" vertex="1">
          <mxGeometry x="104.32" y="717" width="58" height="58" as="geometry" />
        </mxCell>
        <mxCell id="vHoobKAGo53R7YxeHOst-33" value="Gateway&amp;nbsp;&lt;br&gt;com politicas&lt;br&gt;de segurança" style="sketch=0;points=[[0,0,0],[0.25,0,0],[0.5,0,0],[0.75,0,0],[1,0,0],[0,1,0],[0.25,1,0],[0.5,1,0],[0.75,1,0],[1,1,0],[0,0.25,0],[0,0.5,0],[0,0.75,0],[1,0.25,0],[1,0.5,0],[1,0.75,0]];outlineConnect=0;fontColor=#232F3E;gradientColor=#945DF2;gradientDirection=north;fillColor=#5A30B5;strokeColor=#ffffff;dashed=0;verticalLabelPosition=bottom;verticalAlign=top;align=center;html=1;fontSize=12;fontStyle=0;aspect=fixed;shape=mxgraph.aws4.resourceIcon;resIcon=mxgraph.aws4.api_gateway;" parent="QIrvTC7RfS_J8TlOLp5B-1" vertex="1">
          <mxGeometry x="574.32" y="31" width="58" height="58" as="geometry" />
        </mxCell>
        <mxCell id="vHoobKAGo53R7YxeHOst-43" value="Lambda Negativação&lt;br&gt;Serasa" style="sketch=0;points=[[0,0,0],[0.25,0,0],[0.5,0,0],[0.75,0,0],[1,0,0],[0,1,0],[0.25,1,0],[0.5,1,0],[0.75,1,0],[1,1,0],[0,0.25,0],[0,0.5,0],[0,0.75,0],[1,0.25,0],[1,0.5,0],[1,0.75,0]];outlineConnect=0;fontColor=#232F3E;gradientColor=#F78E04;gradientDirection=north;fillColor=#D05C17;strokeColor=#ffffff;dashed=0;verticalLabelPosition=bottom;verticalAlign=top;align=center;html=1;fontSize=12;fontStyle=0;aspect=fixed;shape=mxgraph.aws4.resourceIcon;resIcon=mxgraph.aws4.lambda;" parent="QIrvTC7RfS_J8TlOLp5B-1" vertex="1">
          <mxGeometry x="95.5" y="320" width="58" height="58" as="geometry" />
        </mxCell>
        <mxCell id="vHoobKAGo53R7YxeHOst-51" value="Segredos" style="sketch=0;points=[[0,0,0],[0.25,0,0],[0.5,0,0],[0.75,0,0],[1,0,0],[0,1,0],[0.25,1,0],[0.5,1,0],[0.75,1,0],[1,1,0],[0,0.25,0],[0,0.5,0],[0,0.75,0],[1,0.25,0],[1,0.5,0],[1,0.75,0]];outlineConnect=0;fontColor=#232F3E;gradientColor=#F54749;gradientDirection=north;fillColor=#C7131F;strokeColor=#ffffff;dashed=0;verticalLabelPosition=bottom;verticalAlign=top;align=center;html=1;fontSize=12;fontStyle=0;aspect=fixed;shape=mxgraph.aws4.resourceIcon;resIcon=mxgraph.aws4.key_management_service;" parent="QIrvTC7RfS_J8TlOLp5B-1" vertex="1">
          <mxGeometry x="555.32" y="400" width="38" height="38" as="geometry" />
        </mxCell>
        <mxCell id="vHoobKAGo53R7YxeHOst-53" value="Segredos" style="sketch=0;points=[[0,0,0],[0.25,0,0],[0.5,0,0],[0.75,0,0],[1,0,0],[0,1,0],[0.25,1,0],[0.5,1,0],[0.75,1,0],[1,1,0],[0,0.25,0],[0,0.5,0],[0,0.75,0],[1,0.25,0],[1,0.5,0],[1,0.75,0]];outlineConnect=0;fontColor=#232F3E;gradientColor=#F54749;gradientDirection=north;fillColor=#C7131F;strokeColor=#ffffff;dashed=0;verticalLabelPosition=bottom;verticalAlign=top;align=center;html=1;fontSize=12;fontStyle=0;aspect=fixed;shape=mxgraph.aws4.resourceIcon;resIcon=mxgraph.aws4.key_management_service;" parent="QIrvTC7RfS_J8TlOLp5B-1" vertex="1">
          <mxGeometry x="406.32" y="400" width="38" height="38" as="geometry" />
        </mxCell>
        <mxCell id="QIrvTC7RfS_J8TlOLp5B-20" value="SNS" style="sketch=0;points=[[0,0,0],[0.25,0,0],[0.5,0,0],[0.75,0,0],[1,0,0],[0,1,0],[0.25,1,0],[0.5,1,0],[0.75,1,0],[1,1,0],[0,0.25,0],[0,0.5,0],[0,0.75,0],[1,0.25,0],[1,0.5,0],[1,0.75,0]];outlineConnect=0;fontColor=#232F3E;gradientColor=#FF4F8B;gradientDirection=north;fillColor=#BC1356;strokeColor=#ffffff;dashed=0;verticalLabelPosition=bottom;verticalAlign=top;align=center;html=1;fontSize=12;fontStyle=0;aspect=fixed;shape=mxgraph.aws4.resourceIcon;resIcon=mxgraph.aws4.sns;" parent="QIrvTC7RfS_J8TlOLp5B-1" vertex="1">
          <mxGeometry x="90" y="175" width="66" height="66" as="geometry" />
        </mxCell>
        <mxCell id="vHoobKAGo53R7YxeHOst-82" style="edgeStyle=orthogonalEdgeStyle;rounded=0;orthogonalLoop=1;jettySize=auto;html=1;entryX=0;entryY=0.5;entryDx=0;entryDy=0;entryPerimeter=0;" parent="QIrvTC7RfS_J8TlOLp5B-1" source="vHoobKAGo53R7YxeHOst-81" target="vHoobKAGo53R7YxeHOst-33" edge="1">
          <mxGeometry relative="1" as="geometry">
            <Array as="points">
              <mxPoint x="290" y="60" />
            </Array>
          </mxGeometry>
        </mxCell>
        <mxCell id="vHoobKAGo53R7YxeHOst-86" style="edgeStyle=orthogonalEdgeStyle;rounded=0;orthogonalLoop=1;jettySize=auto;html=1;entryX=0.5;entryY=0;entryDx=0;entryDy=0;entryPerimeter=0;" parent="QIrvTC7RfS_J8TlOLp5B-1" source="vHoobKAGo53R7YxeHOst-81" target="vHoobKAGo53R7YxeHOst-83" edge="1">
          <mxGeometry relative="1" as="geometry" />
        </mxCell>
        <mxCell id="vHoobKAGo53R7YxeHOst-81" value="Lambda Negativação&lt;br&gt;Serasa" style="sketch=0;points=[[0,0,0],[0.25,0,0],[0.5,0,0],[0.75,0,0],[1,0,0],[0,1,0],[0.25,1,0],[0.5,1,0],[0.75,1,0],[1,1,0],[0,0.25,0],[0,0.5,0],[0,0.75,0],[1,0.25,0],[1,0.5,0],[1,0.75,0]];outlineConnect=0;fontColor=#232F3E;gradientColor=#F78E04;gradientDirection=north;fillColor=#D05C17;strokeColor=#ffffff;dashed=0;verticalLabelPosition=bottom;verticalAlign=top;align=center;html=1;fontSize=12;fontStyle=0;aspect=fixed;shape=mxgraph.aws4.resourceIcon;resIcon=mxgraph.aws4.lambda;" parent="QIrvTC7RfS_J8TlOLp5B-1" vertex="1">
          <mxGeometry x="254.32" y="325.5" width="58" height="58" as="geometry" />
        </mxCell>
        <mxCell id="vHoobKAGo53R7YxeHOst-83" value="SQS Negativação" style="sketch=0;points=[[0,0,0],[0.25,0,0],[0.5,0,0],[0.75,0,0],[1,0,0],[0,1,0],[0.25,1,0],[0.5,1,0],[0.75,1,0],[1,1,0],[0,0.25,0],[0,0.5,0],[0,0.75,0],[1,0.25,0],[1,0.5,0],[1,0.75,0]];outlineConnect=0;fontColor=#232F3E;gradientColor=#FF4F8B;gradientDirection=north;fillColor=#BC1356;strokeColor=#ffffff;dashed=0;verticalLabelPosition=bottom;verticalAlign=top;align=center;html=1;fontSize=12;fontStyle=0;aspect=fixed;shape=mxgraph.aws4.resourceIcon;resIcon=mxgraph.aws4.sqs;" parent="QIrvTC7RfS_J8TlOLp5B-1" vertex="1">
          <mxGeometry x="252.32" y="468" width="60" height="60" as="geometry" />
        </mxCell>
        <mxCell id="vHoobKAGo53R7YxeHOst-87" value="SQS Negativação" style="sketch=0;points=[[0,0,0],[0.25,0,0],[0.5,0,0],[0.75,0,0],[1,0,0],[0,1,0],[0.25,1,0],[0.5,1,0],[0.75,1,0],[1,1,0],[0,0.25,0],[0,0.5,0],[0,0.75,0],[1,0.25,0],[1,0.5,0],[1,0.75,0]];outlineConnect=0;fontColor=#232F3E;gradientColor=#FF4F8B;gradientDirection=north;fillColor=#BC1356;strokeColor=#ffffff;dashed=0;verticalLabelPosition=bottom;verticalAlign=top;align=center;html=1;fontSize=12;fontStyle=0;aspect=fixed;shape=mxgraph.aws4.resourceIcon;resIcon=mxgraph.aws4.sqs;" parent="QIrvTC7RfS_J8TlOLp5B-1" vertex="1">
          <mxGeometry x="95.5" y="470" width="60" height="60" as="geometry" />
        </mxCell>
        <mxCell id="QIrvTC7RfS_J8TlOLp5B-38" value="&lt;h1&gt;Fontes de pesquisa:&lt;/h1&gt;&lt;div&gt;SNS AWS&lt;/div&gt;&lt;p&gt;https://docs.aws.amazon.com/pt_br/sns/latest/dg/welcome.html&lt;/p&gt;&lt;p&gt;Glue AWS:&lt;/p&gt;&lt;p&gt;https://docs.aws.amazon.com/pt_br/glue/latest/dg/components-key-concepts.html&lt;br&gt;&lt;/p&gt;&lt;p&gt;Amazon Redshift&lt;/p&gt;&lt;p&gt;https://docs.aws.amazon.com/pt_br/redshift/latest/mgmt/welcome.html&lt;br&gt;&lt;/p&gt;" style="text;html=1;strokeColor=none;fillColor=none;spacing=5;spacingTop=-20;whiteSpace=wrap;overflow=hidden;rounded=0;" parent="1" vertex="1">
          <mxGeometry x="827" y="900" width="400" height="230" as="geometry" />
        </mxCell>
        <mxCell id="QIrvTC7RfS_J8TlOLp5B-39" value="Birôs" style="fillColor=none;strokeColor=#5A6C86;dashed=1;verticalAlign=top;fontStyle=0;fontColor=#5A6C86;whiteSpace=wrap;html=1;" parent="1" vertex="1">
          <mxGeometry x="1203.68" y="290" width="173.68" height="100" as="geometry" />
        </mxCell>
        <mxCell id="QIrvTC7RfS_J8TlOLp5B-42" value="" style="shape=image;verticalLabelPosition=bottom;labelBackgroundColor=default;verticalAlign=top;aspect=fixed;imageAspect=0;image=data:image/png,iVBORw0KGgoAAAANSUhEUgAAAToAAAE1CAYAAAB3FCyJAAAAAXNSR0IArs4c6QAAAARnQU1BAACxjwv8YQUAAAAJcEhZcwAAFiUAABYlAUlSJPAAADKUSURBVHhe7Z1nkGTndZ7f2/d2nu6ePLOzAbMRG7DIIEAsiMAokqJJkUqUS7L/SOWSKTmoSnbpF8oul+wqlSWXrZLLrnKVJCcFmxEmRYlgAAiAIDIWWGzE7s7myZ3DDT7n6x5wQWCB6enuCXfeB3Mxsx1v3+779DlfOJ917NCjAQghJMREWr8JISS0UHSEkNBD0RFCQg9FRwgJPRQdIST0UHSEkNBD0RFCQg9FRwgJPRQdIST0UHSEkNBD0RFCQg9FRwgJPRQdIST0UHSEkNBD0RFCQg9FRwgJPRQdIST0UHSEkNBD0RFCQg9FRwgJPRQdIST0UHSEkNBD0RFCQg9FRwgJPRQdIST0UHSEkNBD0RFCQg9FRwgJPRQdIST0UHSEkNBD0RFCQg9FRwgJPRQdIST0UHSEkNBD0RFCQg9FRwgJPRQdIST0UHSEkNBD0RFCQg9FRwgJPRQdIST0UHSEkNBD0RFCQg9FRwgJPRQdIST0UHSEkNBD0RFCQg9FRwgJPRQdIST0UHSEkNBD0RFCQg9FR7qDFyCoeggKLoKyB9T91hWrjC/7UZJ90K0m+yH/JsQ6duhRfhLIylGRuLLFbNjpBOz+NOxMHFY6Citht260isi+eAs1+KWqbDX5u4zAFeFZcl1E/0c2IxQd6QiN4lD24ezIIXnfTch+8iDiO0fhDKaN/FaboOHBnS2gevIqKs+fR/Gx1+FOFwEnAisqorMou80IRUdWhmSmQdGFszWHxF0TSN01icSBccQmh2Bnk4gkomsTQUmE6VfrcCWSc68WUD8+jfKzb6L07Bl4cxVJsWXHo2yx2WxQdKR9PE1XAbsvJVHcDmS+cBCp2ycRHc62brBOCALTTld6+jQWH3sFleem4M0UEajsVMIM7jYN/GojbRNURBRlIP2pfcj9yh3IHNkPZ6Cvde06QtJUK24j9cFdGPnNR5C+fyfsoXQz3WYnxaaCoiPLR91Q9+GM9SH14Un0PbgXif1bEEnGYNnr9KMkstM02pnIIfuZ25A+slv2d43SarJmUHSkPSRtjd40gL5PH0Dy1q2IjqyzdPUGqOxSH9iJ1H27ENs1BCvmNFNwsimg6EhbWFEbib1jyH7iMJzhTOvSjYFlWxKByr5/7lbY6VQzhSWbAoqOLA8T/ViIHRxFbP8InFwSlrMG4+Q6xBnPInnnTSb9tuIS1ZFNAUVHlkXQCGBJABQ/PI7YnmH55GzMXksd+hKfHEJ0ew6R/rjpmSXhh6Ijy0NEh3oE8R2jiG4ZaF24QZH0O7pnCM5E1gicPbDhh6Ijy0MjH/mx+5KIpGKtCzcmlkSjzmgatqTfcHXkc+sKElooOrJsLB2XJtFQZAO2zb0NEZ2l83GTrZ5Xii70UHSEkNBD0RFCQg9FRwgJPRQdIST0UHSEkNBD0RFCQg9FRwgJPRQdIST0UHSEkNBD0RFCQg9FRwgJPRQdIST0UHSEkNBD0RFCQg9FRwgJPRQdIST0UHSEkNBD0RFCQg9FR0i3qPsISi6CfMOUZ9dS7VZftP0t5QBROTX18YryeAWXi213iHXs0KM8guR9CfIubCeBsT/4WfQ9vAf2YLp1zcbDr9Sx+L3XUPj6UZQeO95cO8LpYO1GPzCridnZBOyBFJyhDOyRFCK5mIQSK1gWUtfrUcnl6/BmS2jMFOR3UZ7DA+wNuMbkOoCiI8uCorsxRkqLDSQ/dBPSH96DzEcOIDbeDzuTbN2ifQKVZ6WByvGLKPzwBAp/8SrcawVYiQ2+MNEawdSVkA4IKh7sXAp9XziI/l+8E9mP3YLYxAAi6XgzmlvhZtkREXAU8V2jyH3sMEZ++xH0PbiPaewKoegIWQnqGom6InEHsckBZD59COkHdiOxd8xEclanS0KK7ywnAmewD4mbtyDzsQNIH9mF6E0DZslJLrrdHhQdISsh0HY5H/bWDJJ3bUPuIUlXtwy0ruwuGt3ZgykkPrANfZ8/ADubNOkyWT4UHSErIJD0Maj4Em2NI3n7dljxqBhJwrBeIY+tKXH69p2IOJIW1xnRtQNFR8hK8GSr+ohODCK2a8S0q/UaO5tCfNsIIomY/Kv3zxcmKDqyOenUE5o5SlRlJxOw+5IScPVePPocVjSCSC4KK83e13ag6MiyCbRdqu7C1/FcGxk/gD9bgV+sNYeVrMhRkjrKj951NST3NrRXdrWfc4ND0ZHlYYY9BHAXSvAKldaFG5PA8+FezsObk9fhyCnAsyD08C0my8KKiuhiAWrnr6Fxeb516Qal4aNxZh7e5YIZwqEN/STcUHRkeUiKF0hEV3vpMurHZ0yvoxlLtsHw5kuonrgC92IefqG+wrSVbDQoOrI8WnMs66fnRHQS1V1agF9rmMs2DH6A+tQ8Sk+dgTtdROByLNpmgaIjbaETy6snryL/7VfgzhRal24ANAAVsdVevYL8X70Er1DmvNFNBEXXLXQStpxIQU22qre2W0MilR7Nh9S2usb5RRS/fhzlH5+TyG5jtNf55ZrI+TUUf3gSrqSvgS/HiJ/+TYP9pdGHH239TdolEJlo9qNbxEIkZiOSjMFOx82k7kgqtspb1IzQ1wZ2M/zAkx3TfVO60eCuDyEprK/lgy4Um/XWZHMGU2b+pU5VWldoFCdC8+bLqB2/ioW/+DEqL03BrzRg6a52ckwa8uBlH32P7EHili2I9MW7c4zfCx0WU6ih+HdvwL2ab74fZFmwTFMnaHmemkZQAZzxNJzJfsR2Dpp5iVY62rrR6mEiynId7oVFNM4tmJ5FE92JnEya1q0TQ+UpEaPlOUjcuQV9P7cfmYcOmilK6woRvVcUMXznDSz89YtGdn6p1mxv7PBYBGV536cbGPtXP4PcL98BZyxjvux6iry/jYuLuPwvv4LKy1Omc4gsD4quXUyKKoes6sPZlkNszxDi24fhbM3B2dIHeygt0ZxEVRLdrTZm/mXdg79QgTdThnuliPrFWdTPzqB+fNoM9LX0ZOxG8UY5BEHJM1KP7R1E8o7tiB/agvjeUcTGcoiYCh5rEOFpBFcS2V9ZRE1ed+3lKyKFC6i+fknS17rstOx4J0U2W1B0GwuKrh30SInotHHHjiWRPLId6Y/sRvruXXBGs5K2rn4Ud0NEen7NReWNCyj96AzK3zqJhpz8nkY02j6laVY3fFeTx6p4iIzEEb9lHKkje5DcswXRsexPotoen/9voW+NiN69VjRDSMovnUP5B2fhL1aBhKTzZhZEd3aGottYUHTLRac/SSSndcZik0MY+NV7kTw8AWciZ9rkTP2xXn/Q20HfVdlnv1qHl6/Ck5N/8Rsvo/C3x+Be1N5SuUGsCxGXprEqf3WIbcOKRhFJyJaNIzIUN9HTqk1Xash7JALyLlfg1+vy8hvy2zXHwbw3XdwNim5jQdEtBxPFCZKKpe/dib5H9iP9od1wRjLmpF73mHTbR+WVKZR+eLolu0X4kuKZRVi6cX5q2qwpvTyPoqm7lXbkr1X6eGk6rlNw69pg3zCvyYrJ/3RGRw9ES9FtLNZZN9n6xMwCkGglumMAmZ85hP5fuhuxbYMbQ3KKnIAqntTdk8h9/g5TCdcZz7ZmN+jWul0naIdHXNJDkZsRnAjGtBeWXfhFiax6uenKWyoeeT7RHKyMSLZPImyNWHscTYre5RCujnDeehbNLlbpOcMCRbccJEqIDmQw/OsPIn3frmaDfo+/vHtFdCSLgS/ei9T98jqyUbMIy1sRaw8wax9I1NjTzcxXbT3hKqMDqP2GpMergQrO8+FrGytF1xYU3XuhKV/FQ2znENIP7TaVZDVd3aiSUyxd42D7AFL3TiL9wd0S7InselmWW4+V6fjo5dZ8qtXEMkN2InALJbhzheYXRo8xUi3Vmmu9aicQWTYU3XuhbT5aLvvWCfR96gCc0b41GTbSVVQKEpEmb92G7McOmsKR5nUyQGgPbRNMR9C4toD6+Vn5Uuy9eFRy7pW8We+VpdTbg6J7L/RbO+0gvmsEif0TIjltXA8HzmAasb0jiN4yBHs4aTorKLs20M9G0kbtlSuoPj0FvybfFj2O6mpnppH/7uvwGlUgxVO3HXi0boQXGLHFbhYZ7BiAk0uuvylOHaCvzRnqk3R8K5wtWfN62e7TBhoZi+y8hQqqxy4j/81XUT8nkZ0exy6jVZ2rxy+j/KM3ZTtvhgyZ+oBk2VB0N0CnTumanYk7J+BsFRH0eujAGhBJx8yMhuhEf3PuJj3XNkHgm9R17k+fEgmdhTtdgJZo1xJW2qYWuCvc9L41F16hakpiFb77BorfO4n6sWkEVTeUn8dewnF0NyAouXDGc8j92h3IPHIASUldw4ZfbaAxNYe5P3kKC3/+HKzBaHPcGVk+evbIIdMB49HRHGL7RpA8sgPxyRGJmDNm7OWKcH24c0VUX72I8nPnUD8+C2+uLPKrNx+Tb1NbUHQ3ICi4iG4bwMA/ug99R/Ygvmu0dU140JTInSli9o9+gLn/+gwiIzFAB9mS9jDDPuQ0ks3uTyJ2YBTRkRycvpSktysTnVZd8ctV1M5Oo37yGvx8w0RxOlaRtA9FdwNUdLHtgxj80gNI37cTscnh1jXhQUXXmC1g9g+fwDxF1x1ckV7VA0pa2aaDU0uLzaRFavp+SARn2uR0KA1ZEfx6IKSbmPF1Nqx+B9ZIdOXbkGxpeZy4bF0sRrBZoegI6SbqIxWTTodLdrAl5NSMyqbj9djx0DEUHSEk9FB0hJDQQ9ERQkIPRUcICT0UHSEk9FB0hJDQQ9ERQkIPRUcICT0UHSEk9FB0hJDQQ9ERQkIPRUfWF1rwQ0uSmzVidfPN4j3vtv3kNrLpfeSHkHeDoiPrCl3Oz4is4ja3kocgL78XG2/fCrqWa+s2VbmNim8VVuIiGxPWo7sBrEe3CiwVrNQVrVprLURyCdiDSdhDKUT65e++OCJx3bT6cXMFNt3voNaAV6uZcuN+qQ73agH+fBV+oW6qQ5uv8Lhl1n1l9Q9C0d0Aiq5H6KdNF+HRdFNrrCVs2AkRWUq2ZBzORMas0eFszcAeTsHuT8FJi/RSsbeWmtQ1E7xKDV6pAr9ch79YRePcPLwrRXjTFXjXyvCqIkG3YRaS0fUXTLTHEuSbForuBlB0PUKEY5ZWXPRgibycm3NI3TdpFgdP7h6XaC5tFu3REuS6SDQi8ntpkeql4pMqSv0JNF1t/tssKCPpq0Z3ulhN9eQVVI9eRPVHU3AvF+FL5BfJcE2MzQpFdwMouu4TFEVukn7a4ykkDmxF4uYxRHcPIbq9H9ExieIG0rAkRbVWuqCMyk+E5+UrcOdKcK8V4F5YRO3UNVRPXEH9jWtmeUJdj4Ep7ebC/tLow4+2/ibXI9GBnUsi+YEdiG0bMClU6PAkAqrUUXnmPKovXDClu01F227j6ToKcjxTScRuGkTinm3IfvoQMh/bj/SdNyG2VY5vNmnWmrU6kY/cVdfe1TRX16zVL6r4gS1wtmURyYlAG3IbjQC1w6Mmf8jvnrxesu5Y4VcnIcsnKHvwL1SR+tBODP72Axj7nY+j74G9cIZ7vF6uEZ+F+I5h5D5+G0Z/75MY+q0HkXpgEpYbgb+g5iObAYqO9AbTbtYcKhLbNYzhf/4Qcj93G1J37IAzIhFWOr7yFLVNTLqcSUh6nDHPn/vcHej/B/cgdfcOBAtuc/FuEmooOtIbNEV0A0SHM0jfL5Hcl44g/aE9iE70m0hrTZDoUZ+/70N70f/370Tfx/eL/PolXZaUXXuBSWih6Ehv8ANYIrvcL0r09Kv3wJFoKpJwWleuLZZtm/a7zGcOYehfPCwpdA5BwWtdS8IIRUe6i/Z8ljxJT/uR+6U7kbp/F2I7hkz6uG56ObXtLuZIdJdD6p6bkHpkJ2I3D5n9Xhq4TMIFRUe6hzpCIrmI7SCxb8xEcon946YXdD0SScYQ2yqp7Cf2InHXVqAhIaim3CR0UHSke+hwjUaA+D0TSD40ifjOEdPpsJ7RSDN12ySSt25HZCDRXDSahA6+q6R7mKzPQupuSQfvnjQRk45r6wo6hUtnVGhq2c3s0rJg9yVMGhu7eViiz2jzuUiooOjeA/Nx12lG5P3RaVmODXsgiZRER4l9460r2kSHpTQ8eIUK3OkCGlPzqJ+ZRe3EjGzTqJ2cQf2UbG/OonFpEe5cEV6x+pP5rCskkhXZTQ7AijvyllN0YYNTwG6ATgGLbutH/2/cawa3JnaPta4JD12bAiafoKDmyfHKIXnvDgz+6v1IHpow0VK7BHUPjWuLKB89j+rLl9E4NgP3XKEpMv2kmoe0zLzV6MEBE4XF940huXcC9mCfRJESka2A4g9PYvbPnkLtlSvw5surNsaPrA6cAnYj3AC2fMvHDo+aXsPoUKZ1RXgw80LnSig/fQ7Vly51NgWs5CE2OYLMpw+Yjgid0tUOfrUhgsuj9J2TKH7zGMrPnUX1lUsSwU1L5LZg9tNb+KktXzblmRpnJeo72rpdtWqqnGjbmyUR5vsiEaSZBvfCBRS/fgx+sWYuW4mkyfqFX1s3Qs4ROQXkgy9pUc1tXRgyXB/uQhlBtS6fBDmxV3pua6RVD+BkUkjcsk3SwPYkp+1uRrg/Pof5P3sWs3/8Q5S+eRz149MioRqsjEhrwHnbBnkKd7qI6ouXUPzq6xKV/gCz//lJLH71JZRfmDIpr07u16j1hiltK02uX5xH7Y1rqL82A7/caB4LEioouhshkY2mUfXTc5LKVFoXhguNomqnrsJdLMJKycndyafBkXQyG0dsYgCRRHvDSVRI1ecuYO73v4/a8auIDIrM0rLFIxKV3UDAEnHpdVZcJChprLUlDq9QRulvT2HmX/8dpv/gcSx87UWJCK/J5dXWnd6Ovr9a4WThL55D4QdvwMppFEjJhRGmrjfAZC4SCQQLDcT3jCK+d8SMqA9NSiNBjkZE+W+8KnK5hqAsUV0HhSm1dzV521ZkPnmo2dPaxuNo3bji90+g+N1TslserGRrcLEe6/c63kvXy21N2SWJDLUenTdXhq+dGVqq6XxeUttZ1C/NNjsuFitmq1+Yk3R9CsXHJVV+4hRcSXtV9O3uO9kYUHQ3Qk+gqnzjny0itmcYsX3DZhhC14ZLrDG+pHR1EcDCf3/OtG2ZgpQrPcHVNemYEV3fw/vafpzFb72K4g9OwC9WmhHVSlPHlvCsRMSIu3F6HpWnp1B56TwqJy/Cmy3CnZHtah6VV6ZQ+PYbyH/5FdP5oJgOiJUeA7KuCcdZ2ys0NZJ0pnrqsnzrnzRlu8NC/cw0Ss+egbcgJ7mOT1sp2v4lkVRkMNkccLsC3KlFNN6cbwpupZL7afS9k/Q3MhSVv2UXr5ZRfvIcCv/3KBb//DnT8aBtgBo9WjGtZsxTIczw3X0v9KST6KBxZg7lJ9405bm9xea3/0ZFSydpB0Tl+SmUHj/VlHcnctF2ftki2lbWWtOhXcxKXtoJoHQrotLXpNFhXD7i2rFU90zk1ri8iPrUPBpX8pLm1kxbrLltt56XrEsouvdCP/+SzrhTBVSfuYjSU6dROz9rluQzJ/hGQ6Ivv1xDTaO5H5xB+btvNnslu9AAbwbZ6rCMFaCDdK3Eysa/LQsRmUlpVcaJn2yc7rV54Du9DKw+24zPWvxvL6D42BuonZ1uCmKDoZFc+cUpzP6HH5h2q4gO0+iG5ERwuhaDl3/33s33IzrZj+juweaketaFIz2AolsOZuUoD42LC5LCnkHhq6+h/MI5NK7mm21U6xwzjETkXPzeCRS+chSVF86L9ErNtK5Tz+n9ZfMXavDzK2vDjN88hsSBLUA5kC8QTrkj3YeiWy6xCCJjcVRevoC5P3kaC19+AdXXLpoBptr+00xnNX1r3X4t0X3QoTG6CIxEnu5MHoVnTmD+T5/Fwp8/j6DRMA3wXUHTQjuCIC/HQbaVpK8queTh7UBdjKmLWa+HY0hCBYeXtElzrVFJ1WZKZjR99eWLcItlIxUz7ciSEz8iEumkgX+lqCO0Ha5YReOKRJ+vTSH/zaNY/OsXUX78DNxLi2bfTdtUN3dPxVT0ELtp2KzR2px+tXyRmh5PbUPL2vCny3Av5Jtj6d5rDB0hbcBJ/StBoyVJsVRodi6B+OEtcpKPIDbeD7s/AUtL/XQrYmoH3a+Gb2ZyuLNFSa3nUD12xQzdCAoSbekwil7slwaz8w2kH9yDoX/6oFmvVReibgczO+LMVRT++ijK3zuN+hXZZ5FyR+PqCGlB0XWKyqXsASVJE10dTxaDlXHMsJRVx5N9qboIZiSNrIqI07IPWo1Eo6VeDobVSLLiInFoCzKfuwXZjx4S8Q+1rmyP6qmrKP7NG5j9t9+XQytyltfAgbykU5i6doy2UcmmkVJr8Kk5KUWApgdxNTdtJ5QfEwWZIRQiCZWcRkS9jIrkoc1z+D78hSqSt25rrva1AsxaDiMZJG7ZYr4w/EIV3pVq8/XpoTXTvlo3JmSZUHSdoiednuQiF0t7Z+VkNKjoVnuTH4OKV/flrcGwsvUaeR6t8uLPVpC8Y7up2BtZwdi4iIjO7k8htnPQNAFoe1/EchBY2rEikaoIz7yaXoqbhA6KjnQNLb6pBUtjuwfhjPYhOpZtXdMeGh3qIOL4rhEkbxdp7h+CV6qgfm7OtAWaCJKDfUkbUHSka5geZ4ls/UrDrBeRvH1HZ6mmebyIKaagbX7JWyYQ3aEpcQB/roKg6JoolqWVyPtB0ZHuoemkpMu+KUVuI3rTgBHeSlLYJXToiS6XGN2SE8lJpDiSMo+nj2+iOi2eWb9uPdbVSNPJhoOiI91FmwqrnpmN4c7mEZ8cXnEK+9No+50jj6WdHam7JVocjcPPV+GdWzRps8R/XZnSRsIHRUe6i3jGpKtaLeRqqTWR3pGIbGW9sG9DH1vb7+zmYzr9KcR3jZphLfZoGkGpAW+qANPzrL7TzhhCBIqOdB/tgRXR+fNVMwVNwzx7KG2GjkTiTvM2naDCk9TV6U8jtn0QsV3DiPTH5WJbUlhLUl39rZVaXFg6JU19x5R2U0PRkZ5gIq+YBfdSEe7lPNxiCbFtA4iOdieNfQsRmMozNtGP5J07kD4yaQYZazTZeGO+eRudTdbGlDQSPig60huWoiiNqHRZxekSvJmiWU7QGekznQxdk488j+m0iNmmpLsj0aMOTUkcHAf6bJPS+teqZp8sfUpGd5sOio70FFMEQeffzpThXimY0u0Rx0HgefLpa0ZjzSEoXZCPCi8qKe1wBrGdQ4jvG27O79W1r8seAl97Z3VibvO2RsZkU0DRkd6jaWw0YtrrGmcXUPqbU3DzRZPaxrYONoeKdLnjQAsuWMkoEhLZxfePIbqzH42L8/BndR1br/l8OhyGbAooOrI6tJyiZaQCSWX9ah3uhUVUj15uFgG1AtO5YEpcdcM/8hjNdkLHjMNzBlMi1QGz9qxXrsIvNEylFw423hxQdGT10NRS5wTHI/DzNTTOz6P62iWzjoXKT+1kemlVUiIoUyigC2g6a+dEdLtHjeiCWgP+fMUUTTUroOnz0HehhqIja4Kp+KLSk5TWu1ZC9eVLKH3/BNx5HXvnILalv9lZ0Y22uxYqTmeoD4l9Y/DrNbPQtS5w/VYBBBJaKDqyNqhXTIeAbBJVaSSnsyl0poOJ9F6WlHa2AEl0YWdTple1G1GXtgeaaWmZBCxJo3UxazOFTCM7yi60UHRk7dHUsdU5oGWe6qdmUXlhCl6xAq1xZwUiOU1t1XVapr3DlFalGR3PmcfyilV4V4vwS3VOHwsxFB1ZX2hKK6mktuNpall96TJKjx1HY1ZSzJSN6EjOjJfrRkrbrHs3guorl9C4ljciJeGEoltNtMdRq2xotVxd1k83Xcu0k00fq1V005z6HUY7a47uvkpMX4ekk1rySRf70VX1G5fyqJ+YhleomLY9Ox1vprQrxIpqj2wUXkkef1Ee/8x8c9gJU9jQQdH1GhFQc3aA/JaTVytwRJJRRBIx+VtLGHW6NeePvpXOqfj0zy424q8Z8ppUaFoS3puroHF8BpWXp4z09PJIXMs1yfWazi6197WD3jwij9Mfl8evovLUeZhS+Cq6EBw+8hO4OE6v0QVrNPLKe7DH+xA7NITo7iHYg1pXLda60crxaw0z26Bxehb10/PwTkkK1icnf1rSuzBxXal4y3FMB0VMjmPmU4eQ+cjNsAdSpqOhbeQx9Rjmv3EUM3/4OLx8GX7Dbfb4ktBA0fUKPaqSeulQiYhILblvK+I3j8rJOWBKCkX6JO2S1KlTgoZnxqG514pwpxZRPz6L6uuXUL8014wk9XwNQ3R3HWapyUCi42wc8b3jSN25A6mHdiK+e8RM/1oJpR+fxfxf/hiVJ96EO11sritLQgNF1ys0AvGA6LZ+JO7aiv7P32VWpLdzydYNuo/2INan5rD4v19A8fHjcsIW5B2WK8LY5qSVhTVNL0qknEkh88XDJrJL3rHDDB8xMyzaoH5hDqXn38T8f3wKtePXYOW6UE6KrBvYRtcLtMMhYsEe6zOp1dA/vN+seRBJSRS31JbWA7Rh3qyvsGPADIzV6VWBpGGhbG+SKFUrkWhbnRYIaLw8Da9aR2QgiuhQ1rTftYOmvXY8hvJ3TqNxccH08JLwQNH1gKARIBKLIvOJgxJl7Efy8La3dxj0CH18M90pk4Cuq+BXa/DnqqZEUnOWQeuGYUFT8tYx9Qs1BMW6/K7DmcgZ4bezVoUpAiBfFOXnz5uhLGbcnungaN2AbGjY4tptJJhT4TjZFLIfO4jkrdtbV6we2i4YnRxE7gu3IzY5DJT9ZntdWNGpZEMxNKbmUfr6cZSfftNUKlnqvFgWOn4vKdHg3n442zLNDqQwH7NNBkXXTeS8CDwfztYsEvdvhzMuKVRibdp6tGJHfO8Yorv6YY3Fw9lO91NYWYliEwHyX3sV5R+dM5VS2pGd+YIay5jCnc3xia0ryIaHousmGgHUfNiDacT3NytloIMBrZ2w1F4X3ZqTCCXbTPHCHqHo5HwxW+PUHOqnZuBeW2y2US4Xubv2kEeyieZgbEZ0oYGi6yZyXgQqunTCLNqig4PXGltXzN8mUZ2exasdoagnVtsVEsX5RReNy3nUzs6YQgHLxrJgZ+ImGtYe3YARXWig6HqAKfbYt3bR3PWYWRh9sabklhZ5Xg1EOIFWJdGqIKv5vHLIrZQFr1xB/cJMs77dctGA0BT+1D9ImKDoeoCmjWaU/no4YVpTpFYlstLn0JkgBZFLLTCyd8YzsIeblYODkte8TsXXq/3RQ65VSCQc86tus52uXSi60EHRke4RaLoXwKrJBysq6fvkMBK3b0X80DicwTQigSPXiURUJOofjTJ7ITzdB9uBnVzBuEXdn15JmKwZFB3pCpqiWokoYrsGMfQ7D2HLv/8sxn7vZzD8Gw9h5B8/gvHf/xzG/+izGPzdB5G8bwcisTiChea6DWYWSbfQiHLBhZNOI7Fvi5klsWxkN4Ky7FOtYQYim6URSSjgW0m6gqbrsckhZD9zGzKfOoj0I3uRumsHkocmzIDp9Ad3oe+jNyP7qUPIfvowsp88hNS9k7AHkiI6yyxH2HFKa4aEWKaXWYWri+HomMJlI8J150rw8tVmD2670SBZt1B0pCvoLITU7dsx/OsPInFQI6l3zkrQ4S6J/Vsw8IW7MfzPHsHAr9+H2M0jkubGgbJ2XqioWrJrR3it25vJ/raNxAPbEbtzC+yhdFsVTTTtdi/n4c4Umu18N/Lc0v6927bET//7et7t9qSnUHSkM1ROLhC/cwKxw+MiFhXE+0dCdi5hIr7Rf/JRDP/Ow8h98TYzDAZuBMGcpI9lV1JIr9lr+15oqlr14F+umtJNyQcn0f/zdyF1W5szUrR9seHBPb8I70rRpK7veB0iQk21g0XZt+n6O7e8XC77Ym6jf8/L69Diqten5npdSa6b0dcoUSxZFTjXtZvI51nH0Wk5puSd20zJIJ3jupbUzs2gdvIaGidm5YSTk67LMyR0Xq8lD5v+8B6k7r4JsYmB1jXvjc691V7Z6EQ/7OGU6Zm1s0k4uRQiuaRcp0U1JRpTkakQKrKJRHRAttn0efUxMnE4oxnEdwwj+cGb0PfhvUjfuwtRLdfURu+pVjJ2r+RR+MZR1E/LsdLU9fq7q6x04n82juTBrZKOb0d87yji+8aa2/5x2CNJWBnZ71QUib3jiG4fglcqN1Nyvb/8NuXbJwclpd9uinxqteQbRo6ka1B03WQTik4jFMu3kPn4ATn5t8KRE7ldVHDxncNI378LiTu2IrpvUETXPG5BoSHRWqXZcaGRVFE3eR31AJF0FLE9Q0gemUTul+9A7jO3Iv2BnWbAb7tDRDRdrRy7hNJ3T4nwCmbNiuvRtNrOxBDbPYiR334Eg7/5ADKfPojMZ25B5rOHkP3sLYhMSKrc1yyqMPhr96HvkT2ovHxWZFZDoKKW6C5++wSynzuM4d98EH6xhuqLF5qio+x6CkXXTTaj6EQAWgQzedd2E6mstPDlEqb6ikY9O0Rgt25D+sgeZD4pQvlZ3Q4YuWS/cBi5X7hd5HJYIribkb5zhxnKootUmzGDK0CLlS585UU0Ts3ArzdMtHg9S97UXlmvVDO1/rxqTaI03xQQWPzqiyh9/yTcS3lEdw42aw/K69CBy95MGd7lotzXR/pD8no+vh/RLf2oHbuC6htX5DMjub9ON2tTzmT5sI2OdIb2TMqnqHFtUaKiYuvClaPDQaIjWST2jUsqPCki24fs35OI6fOHkf35W5vbF25F5ucOGwGm798tUplAdDT7rh0g74uklN58CbUT06g+rUssVt8hOYO8Tm0v9BarqDxzDkWRWv3NaTQkEqyfmUX+y0dRfvIs3At5iTRjsBKOiC5pXkN0UOSvpbs0Vd/Wb2oTam+wFbfN7QziOdI7KDrSEabzQTLF6smrqJ2Zbl3afTRS05TUziaM0MxqXV1Aq83UTk+j9uoVNI4tNFPM93nsxrlFNE7OwVtork6mqW7tqUtwTy3Cz9eb0Zlgp0V0B3fASablToCzN4voTTlJ7yXFXQfTAzcTPNqkMzSik5/GsVnUnr+M2qlr5uTfCOgK/brWRv4vX0H5iTOwhiTKii1DoJodt2QYcfQ+EknqWrO6gpiKX9DotjHdjO6c3RLF3TWK5Ae2A/EI6pLqBlrYk6waFB3pDD2vLQu+RDfV16+g8DfHUD87C78ikc16RlJWbVsrPnkS5WfOmjUjzMppy4kUW+l68++IyE5SUJ1TrPdtiV8XLPIWy2bNWHtrBsl7tyN1z00mRa2dvtZesQHSMRQd6Rw9t3OOCG4as3/0fZSeeRPubOftdT1DO40aPsrPncP0f/oO6rPzQKrLp4Kkpn7NlQj3KpyhFNJH9iJ9+y5JjRuoHL1gCg6Q1YOiI91BZAdHBGL5yH/lFSz8j+dQfe0ivHylef06waSrV/OY+1/PYPGxV+DPV+VCLQKgL6C76GsvPfsmdFlLnQanBVm98yXUn5eIjqJbVSg60j1UFlEL1aOXUPz2ceT/3zETNWlaaGY4tBrp1wTtXS1UUTtxFYXHZd8eexWVly6YyM5IWlPOdtG7/NTddISIFbFNOhsUamb1f+3giI7lzD64lwpwzywAIlyyelB0pLvoiZ6SNPbcLOb+/ZOY/S9PovCdYxLBNBDoDIE1Qhv/6+dmsPCVl3Dt33zL9LKi5r37VK/lIHcJHHk92jFx/VmkbXbxOCIJnb/ro/bkJXhTBWhFlPrFOTP+ztcKKeJXsnpwwHA30bafmo/YzkHED44hOp5ra8m9XlA9dhnVVy/CnZIoQs+ulUQu7aJPoccCvkRMDXnuPKo/umjG2gVeA3YmaerE9XyIheebKK76ygWJ4I6i8LXXUXl+Ct5iqSk3ffqVSE5em46Bi6SiZnhK49ICqi9flLNJUuB0DJFszIitcX4elaenYE+k5Ei4qLxwXraL8Kt1xG8Zlffmihk0HLiSxupurGRfyLKg6LqJBiw6VWiLjpfqR3xHc9HqtaT83Fk5uc/DnZWTW/dvtU4mSWN1LqeZQ3pRRPfiJYlkKrLVgaJrhqD4tbqIQqIqvb2uq9qphCU11FRUp1Zp5KS9v9VXLqP4xCkUJaqsPHsB3kypuTi16R1d2fPpvSy5r36p+fmKiG7RtPuZ1N2RyxsuvLkSGhcWzADiQL7r3LkCaq9fkdRVZO/7RpT109NoXF5svi+kp1jHDj3Kw9wttAJGXSK6PcNIPbATQ792xCySs5ZM/+F3MP8/n20uErNWbWT6tCIhBCI/HXVSChC7ZwyJD0wgced2JPeMIzoxYOaIdiJi7WjQDgAdvlF54ZwZNlJ75kpzqlZaHldfvz5+NwJJfU1Lm/LTj6mpqV5nmf/pJW/9Uiyt6inX6X+k91B03UZOaCsRM5PUR3/3Y0gc3tqcZL7KaOTUuDSP2T9+AvmvHwXicpZdd6KtCRLtmrJFVQ+R0RSckTTsoT44mbSZLRAZTphKJpHBZHMGRF9zRS4dlHu9ADUK9Bue6bn0JTX1FiVSnJffV0tmcwtliWDzZsCuf7UsfpP3JLkUxbUepFP0rFF566aPuTRt7PrLFb186d/6/OZm8ls7Z/TfPejtJe+EousB2stm9yUx9FsPou/hvYjvHu3eCbYMtIfTDIb97nHkv/IqKi9eaA6G7TQ17CKmY0KkF1TlhNeSSzrFazgGZ0sG9pjIT9eY6BfhSZQXicVMqriE74rg6lrPTdLieZHbtMjtahHeRdmmK4Ckiqb6iGxm3ipdsumh6HqAWT8hYiO2exj9v3AXBn7lnmbD+yqdcN5CWdK2N3Ht3/2taasKfG9dSc6w9KlbinwUjW5UaHKRVkT5Sfqn+379/rfuoz2eS+mfilNTU3P7pU3+d/3dyKaFnRE9YOnc0ob4QKcCLZSavXSJKCLx3vXCarpaPz+LwrePofDN11HTEkCS5q2H9WXfwZKMTDrX2hQVnyeGk02HhGivpr6Gd2wib23UN6WnVG6KPoTKUh+LkiPXwYiuV2hwISepCs6RVCz76dtMee/otgEzLAG6ytR16diK0Q4QiWb8Yt30/Gl9s8Jjr6Hy0pTpATSp23qL5ghZZSi6XqJHtpVORRAzizlr9dzYwRE4unBLtPOinLrOgQ7VqL5wCfXjM/DmKxIJSSQZSCTHqIYQA0XXayQVMw3vVe2NdRAZ0DUO+kxvYjcGzJrUruaammjefNn0aur4taVyQYQQim51UenpsAJdOUsb2ruI6WXU6UyEkHdA0a0m5kjL/3pxxJmmEnJDGAKsJioiFdL1PY3d2uSHEPLuUHSEkNBD0RFCQg9FRwgJPRQdIST0UHSEkNDD4SXk7ejgZi2n1JDfOtZPO3Qj8n3YrV5dHUu4NJFfH1Mn5pupavIP7T0mpAdQdKTJ0qdAflu+iK0u8tHLtPKvrlvaJQmp5LQCr9aI0ycLbPkd8RFEguZzcDwg6QEUHTFRnJmmJpFc/NCYWWg5vmMEthbDTEa7H2mJ7HTdBHexhMaVRVPuvXbiGoLZGpAQqeosD0K6CEW3mdHoqh6YxVycsQwSe8aRuG0CicMTiGlp82xSpNN54YF3QwtneoUK3Jkiqq9dMksk6voO7tSiXF6Dlexiukw2PRTdZkbb4soeYgdGkH54Nwa/eB9i2wZ+UhZ8FalPzWLx715F8a+OofbyZSAj+2AKcbZuQEgHMEfYrOjCzZEIYodGkP3MLRj4hXvgjGaaclkDnOEMch89jOwXb0Pyo7vMAjpBpcuVD8imhaLbxNj9SfR9ZD/SD+xFfM9ocxGfbhQDXQGRZAyx7UNIH9mNvof3wNmqa+JK2rzUQ0tIB1B0m5W4jei2HPo/dwdSt25rXbj2JHaNIX3fbiTunYA9nESgJa3oOtIhFN1mQzsgqp5ZuCf14C5EsvE1i+JuhDPch8wnDiI6NggUPBEdTUc6g6LbbGizV9k3vaqJ27chktZ0tXnVeiGSTSCp62tM5GCZYqLskSCdQdFtNnTMXMWHM5A1w0kisd6tSrZSdKW02NYBOBMZRIYk4tTZE4R0AEW32XAiiPRHYecSsJMikXU87SrSF4WlqbVkr+yUIJ1A0W025B23ErrGrINI1EFXllzsEZaug6uptULPkQ6g6DYrKjhdhWwdN39ZURFyzFnX+0g2BhQdIST0UHSEkNBD0RFCQg9FRwgJPRQdIST0UHSEkNBD0RFCQg9FRwgJPRQdIST0UHSEkNBD0RFCQg9FRwgJPRQdIST0UHSEkNBD0RFCQg9FRwgJPRQdIST0UHSEkNBD0ZH1SxDIj67PSEhnUHSbDV343hWBePKHrqy1jhedCTxf9lWXACOkMyi6zYau67rQgF+ow681JGJav6bzSzV4hap8Sq3mRsgKoeg2G6100CtU4M4UAHcdpoYSyfmVOry5Cvw5EZ3KmJ4jHUDRbTY0MopbcOcLqJ+dgV93W1esH/y6B3e6CO9a2USfXLyadApFt9mQd1wXsK69OY3iU6dNerje8BZKKD59Eo2rC4DDUI50DkW32bAsWLGIREtFVF++hMrrF9GYybeuXHu8YhX1M7MofusEGhcXzb6axbYJ6QCKbrOhzrAt0xnROCVCeeIEaievItAUdi07JrTt0PVEbguovHgBle+8CfdyATCia92GkBVC0W1SrHgEfr2B0pePo/CNYyi/OgW/XG9du/r41QbqF+ax+H9eku1FBMkAVpIfT9Id7C+NPvxo62+ymdBOCYmi/IUagqorEZ78lohKg6dIPArLFsn0ekiH9q7WXBHcHKovXUDx2ydQevIUGudmgag8N4eUkC5hHTv0KLu0NjnBoiuCsxE/MoHMh/ej7/69cMYyEvU5rVv0hkAk5+erKP7oFIqPi+S+dhJIWbD67NYtCOkOFB0BXPkIyE8kG4edSsLuSyMyEkck6cCK9CZ91FkPvkSSQb4OL1+GtyjbQlVyDLmSPa2ky1B0pIm6TuSDqvzRCGBl7GaPZw9Fh4aPoOLJc8gHMSr/042OIz2AoiOEhJ7efF0TQsg6gqIjhIQeio4QEnooOkJI6KHoCCGhh6IjhIQeio4QEnooOkJI6KHoCCGhh6IjhIQeio4QEnooOkJI6KHoCCGhh6IjhIQeio4QEnooOkJI6KHoCCGhh6IjhIQeio4QEnooOkJI6KHoCCGhh6IjhIQeio4QEnooOkJI6KHoCCGhh6IjhIQeio4QEnooOkJI6KHoCCGhh6IjhIQeio4QEnooOkJI6KHoCCGhh6IjhIQeio4QEnooOkJI6KHoCCGhh6IjhIQc4P8DqPaGyozFpXsAAAAASUVORK5CYII=;" parent="1" vertex="1">
          <mxGeometry x="1213.6799999999998" y="308.51" width="64" height="62.98" as="geometry" />
        </mxCell>
        <mxCell id="QIrvTC7RfS_J8TlOLp5B-43" value="" style="shape=image;verticalLabelPosition=bottom;labelBackgroundColor=default;verticalAlign=top;aspect=fixed;imageAspect=0;image=data:image/png,iVBORw0KGgoAAAANSUhEUgAAAMQAAAC0CAYAAADLhIOqAAAAAXNSR0IArs4c6QAAAARnQU1BAACxjwv8YQUAAAAJcEhZcwAAFiUAABYlAUlSJPAAADxSSURBVHhe7X0HkF3Xed732u4r2972DmDRiQ6QBItIsahQki1FxZESW4nj2IkTJ1GKncSZzCQZZ5zMJJmJoyQukeNkXOKJJcumIqtQJCWSYgcJgACIutje69vXa77vvHcXF8td1F0Qss8H/nzv3XLKvf/3l3POvetZXFwswcLCwsBb+bSwsCAsISwsXLCEsLBwwRLCwsIFSwgLCxcsISwsXLCEsLBwwRLCwsIFSwgLCxcsISwsXLCEsLBwwRLCwsIFSwgLCxcsISwsXLCEsLBwwRLCwsIFSwgLCxcsISwsXLCEsLBwwRLCwsIFSwgLCxcsISwsXLCEsLBwwRLCwsIFSwgLCxcsISwsXLCEsLBwwRLCwsIFSwgLCxcsISwsXLCEsLBwwRLCwsIFSwgLCxcsISwsXLCEsLBwwRLCwsIFSwgLCxcsISwsXLCEsLBwwRLCwsIFSwgLCxcsISwsXLCEsLBwwRLCwsIFSwgLCxcsISwsXLCEsLBwwRLCwsIFSwgLCxcsISwsXLCEsLBwwRLCwsIFSwgLCxcsISwsXLCEsLBwwRLCwsIFSwgLCxcsISwsXLCEsLBwwRLCwsIFz+LiYqnyfZ3hoYhv+vyLhmJF1h8ecznXuqYllDbobt5JeMqdVHfKWO7uxvdvAwkhOD35c3CXbgge9tRT6fVGEYLlswJzRd2XVZVSW37UCbHcP/XD6Qt/O9tKG9zBDSKED97SFAKlV9iRBfZrY5TjbkMJVZQmFDzbUMAO3scCt95+330+L3xeaTyQzRWQzuSRSGWRyebNNj/3BwI+1ISrEaz2w8tjS8USCpS1FEgKJuXTsV79uAmwWBSLV/pV1IZbgLsN+lQ5+XwBGfYxR8nny3Wo/+pfsMqP6iqf2WaOLay/Xm0IIUoIwFe6jFDpq1SKEZQ8aXa4lnsCZZp71BFXtc7Xa94XHsRz9a98Qvng8u/yL4/HKeha0DE3eSGNUkn51i6/3A4v/x9CDo8j5/0UN+qcW7tpUhZHl1PpPJaSGcTiWczHM5hfSiOZziGTyZn9Pp8PAb8PDXVBNNRWIxqpRn1NNeoiVaYgleWGfkuhMtkCZhfTmGN514P4KFJWs55AwIsqKmiti4DCzVhvkbDI40XaeDKLpUQGi4ksYpR4KmeIn6sovN8rQnjRwD5FKepbbbgK4RD1aZ2xcYTAKKpK36GK9FNZ53jR9vBGNPFOZFkrb6RH1tMczG28oFLma6X4JR5fzNHmFqhiJfhZgz71W/DyfB+Jdl1SqBxk9MX8vCGUeGOKCX6WLfJqKHpzLHEe3uI5kuFzyPr+BRWELbwJJXHDUTIp7qnzE3jrzDjePDuDy1NxTCVy7D+vQfkQ5FlFlk0MV3nR3hDEob4oju7pxH37uxGqDsDvJ1Fd7VDZiWQOY5OL+M6rA3ju2Ehlz9rw85xwtQ9tLL+zOYzutjrs3taCzV2N9ExVvO4e5GjdbwQipJ/EytLDzS4k2b8pvHV2HKcHFjA0m8JSpnyP3VfOU/KgJRJAb1MI9+5qweF72nFwd6epdz2xQSGTnySYh790gt+ep+q+AY/vM2z8DiqVCMELt0wIVl/kdy8/V/ZNiuhYWH2nMhfNpSrycB7PbfpnQCJIh2h3KueVt72nTBGouJIQ+q5z3NuIZXJx31XnvNfyi5rABJ3fD1HwfgL5wD9FvhilBQxx+9XHXgu6v+qarPflsQW8+e4ULo/MYZDfRybjmKOHWMqSDDQevooyFHhCjlXQiKIm6EN7NITDO1rx8P4u7NvZjo6WGrZD5DSHG4L0jyzgmy9cxGunqIiXZ431f8+lckH7q3weRGiVZaEbaoNobq7Bps4Go6C97XVoagjzVvLuOBWtgKO8asvl4XlcGF7AmcF5jE4sYmIqhvHZJOaTeaRZBvX/arDImoCH3q8KvW01JGIDtvY04ujeTmzrjd6y4VmJjSGEx0ddylKm6CW+QvldlAK/xKv6EHfKzburlCKRJGbb1U3xyCIbq7yiiYYcVFBH8d0wx0sq8PFct9fQOYVyqHEFasPKbTzHy+2raYnqdvrhblppgrr/HM87imLgp5Eu3kPr3cbtKt994NqQ0ig2HptawjOvDeA3v34SaZJDIUaICiESqCRD/krbpAt0JKapOSrbYrqILW0RHN3RjM9/fC8O7OowIYiURufIOv/wxCj+1W+8hOn5pClLyu7kEipv9daSeFRWhfZ5hTq05E0k308+vhWP39eLe/d0mbavllOoXyq+wP2LDP3+3/fP4tk3hvDiWZKR++uDDIvYEOMZ16hf56vsVK5s/KppAf7pTz+ATz++g22+QvjbwcbMQ6hxCmk8Lfxk7sDfnuIcezPDnYpXRQBHKgpPRfaUclfJsiIxVDIW2hF5GXPXRAwd5xJ5HnkbI9yvcwusw5Gi6pNw+7Lwt/IaHe+ItuVZV0H1sc1uEYHUx3yaVSauiGLeUgdbnOX3N/l9nlJWsutBN1vKIIUaZVj0v797Dk+/MkACMBTija9mfCQ9W6IrmEzlGaJ5UEtrLdF3bVvIFMF825Amwti+vrbK5BYOjA9ge5STLCoX4TnkmlFEKazKz1LhVc5kPF+WBIVWe5HKn2FsJtKoLWpTNOznNSrgW28M4xnK0PgCy84th3sOHM+gvr1Oj/RbX30Lz745guGpBOqrvctkUP1p9k91zbBOpw3T/L6QLiDJuJDNQxXrl2ZMsf3JSuK9XvD98i//8r+ufF9nKMEMkhbnGeue443o5u2IcHOQV4i9MpZc3ZLQckn5HRI4YkINfRcBeLx7u7H6+r5CjGJzn7N/uR6VVSnP/XvZo+h7ZZvKUD0ik/ESle+mDU47+FkQQdxtJqlNuSSKZ5Y3by8Knl5uU1uuDSmNRlMmZ+I4dXEKX3+xHxeG5lHD8EZKqJAlyES2vj6E7q4odvVEsaO7nrF8LaINEYRrQ2iqCdDSe5FgbN7dWoND21vQ19uEKJNtY7XFB9a1lEjjXYYqz709ShtRQIS5h+yLn+yrIcGaGyPoYAjU0hRGS2MYTRIm65EqPz0Ew1aWFeCxEn0fZdwfYn7RzdyiribIZL6a9Vzps8lZmChfZH9eeHMIz9Lzjc0mkCJ7Q6Z/vJQ8PEiS1fLcVoZiLU0RSg1a+dnK+luYu4SqfEarsiQWrza8PPeJI73Y19e0Lt5B2KAcQlDTA6jGs6TFN6krtFSeVvq5vdynkEpK6IKUXkr3Hkg5tV2K5oJCIQN+GmV17XcMlNmmc1d2kb9FGCl6TvXq8lag7TR8hlTLV5nhRi71nuM8Jg9yjiFMH+gJPaMo+WeQ9v575Dw/rh3l/deAFF5Di9975RK+81I/Xj83bUZ/grzpGonR0GoXE8oH9nXhYx/cScWrooKoobTqVOoErf6lgRm8dmYMf/TyIO7b3oqf+9hObNvcguaoYnteC+MFShgZX8Tzx4bwX7/+DrI8r5ZWWqGQlH5Xbz0eOrwJ+5l7KEnO5vJmGHRmJsGYfw7ffGUQ0wtp1PEcQflLmiHMtq46PHhPCz7Otu3dwXMrIZogQpwfmMPvfuMkTl2axdhcwoQmMgIiQ4KWn0VgW1uYyt2M+/Z1mjbXkFyCRtPi9Ggnz03ibSbgx5h8V/O67Oqowc999hA+9ECfqW+t3OVmsIEeQg6a7C/FqHeU/DlegBiVbSv3ealPDEWWrTXFWH7X57JIqSVOZ7WNZDJDt46IXBL3Nkd4nsin0S1j3SUsw/mUkpvv2i/y8Ltk+dg8ecVPQ1aWp3opxhMsH6MyJDzGHDfH/s3y6j7IdKqPLdDw4LWjU91LKf7zx4bxndeHyqEHt8k7JKgt1aEqfOi+TfjAoR7cs7XZDEHWcFs4GDCJbl24ynxG60Job65lotuGvVSuWh7n88o4lRVQSjoysYBzl+dwiqIwT+GKIURDiF6lCYd2tWP31hY00rOovCYJPZNIqDkQKd/8UsbYnXI4VPYYsiX3bG1FT3u98Rwelqv9l0fm8ebpcbzw1gimFlKmDeqX+hvLltBGD3B4ezM+eLgHR0mGXVuazShWGz2V6jbtYP2NbF9zNEJv5Edfey0O0DPs3d5GLxYpe8B1wMbkEAZsIBWnWKxFPse4uqARmIvcrmRbCiZrKnHyAm4zt42KZZRSiuVIRbGX91cUzxFzrhRT3ynL52k7z9UxCm+Whdae8T9yqttRZoU/lKK2S3jjcklKgsfyeB3Dsjwig8kx+Fv5hfIMR5SjmPpUtYaGF6hssxWHde1LLesmZRtgXH1qOIYk42h5DSHNm+2tDuCBw704vKfDzAGIQLLgEiWq0suO1lo8fLAHX/rcQXzmg9v4u85MZjmWWsdIb+YX01hYStFPM9Njs8xVZZurqWhdVObGhrBRuiDr1JCq5jc2dUdJlA48cbgbezY3go7FJNYOktwwMZtku3UNCNYlMqhfpy9M4bWTo/QMSXqTghnCVVs0XJwiEbd01eOTD23Gp5/chSdo7Td1NRgChEh2taGWnqKNYdR9e7vwKSbQn398Gz758GY8ROPQSjKo/+Ve3D42kBC6JowkvbUoBjpZU4htZoxdiPOTRFAHjHVdIaZj6qBbsVeKjnMLjzdJLvcZ5ZTCu8Qk0g4c5ZeSO1Jpj9qrMMjH46n0HoZltJ0kcrosIpPKF5H0XQMEHp6/LNrm3BieX5zkceNUSJGprNyrQb60QMWIJzOMj1X/1cfWMbZuZgJbSwUJ+HzGGjpK7oa2aZ9b3MdJQaWIs4spzMyzvUR5ZKlE5STpyI5GWmSRKM/2aDbaKadMOg8a64MMZaqQ0/b3NqEMFqljRfCJ6TheOTuFNy7MmnLkjXRalslwlOV87HAnPnp/L45Q2ZU/iOBOnRK13+mXknIZCeVFu/raSJwoaiJV3K++l6u+XWysh6BSlDyMX30t/GQ8KIVn+IRikt+l9BIpi0RK6yi7s80RFxlMWOJ4F8fDaBvPc0KbZeF+Ka7jgZaF291iRrt4vLsO86lj+el4sZViJvjconLUXhGU/ScZUBg2ZVzzflGBRIhkKlue3JKSSk8rcH4WSBaN4Zvf+t8KlBXjihJJ3HBOmSYZNNzq4X5xT4cpZPKSbFF6B80+iwwry5JoyNYJwdyla0AgHPSbXEcEV94wT+KdvTSNS6MxTDLvYAFGodUMHd/RHMGTR7pxhOGdvFsVie8mgRH9q3zXvjIpGToxzKqvDZpRNO1bL2yohyh3iAz21PMX42gqaCk7Q52nl3As+zL0u6KIRqkcqLNXSFHKq4yKKLRR+GOEMa2HZZjcogKRTl7DDJ3yGCMaAWLC5xaVLZJSjBcwoRA/jVDJnSFbkcfD44yoLP4WYVaK6ZfqHqEM8ruIcm3IAmdoUWUFV0Jx9lQ8hykqsdYwKfleObR5o1Dx43MpTFBUgsrRFRYhPFT0pgbG6PREZcU0pyyjvMwig0w2hyqe53ZkmsVuZYyvkSART6QZnYrhxWODSMRSJnEve6MyMetDfmztrDMJfE9HPQ3B6vMXq0HHObKeZBA2lBBlqAqRopWfUVolKpmZi9CNd1v/CiFMWEKFc4c8RuG5nWLmJ8x5Bd5QliGlL1DhZLHNZJ1buN0rJXbKr8iK4zSJaNojj2DyDYo+td+jMvhdonDKtFtl8Lf5rhtCUftyJLoRHVLDbSR/cYg/mDeZ49YAdwX8XhMrVwf8PIcbXIcHfSwyk8P3XhvEs0y4xyZiZmGfrLEUejVvsRKyy7lc0awZml7KYlZzGaxDZ4pbESpyXZg5A0MQlbsSqkOL7YbGae2nE2am3Am3RLIahjt93Q0Me6qMoirxHppK4uVzM1iIZ1CtpJuHa55Dy0x2M3E+uLPd5CfyOuut2LeKO0AIjWzQO3iYR3ja+VtkoKKZOy4FlfZURB6EBNAQ57IYUpTJYETK5WUuQikrKMtRYiyrroTYSY4rxCtpjRGPdXsDD8mznBeYcxxCUJxwy5CBdXv56eNviepUfU4oZZLxynkmSV+qCA/L0SsWF/hljFeA5Zj+rg75US1ea4pGUBuqIgEYdlB5nDNquM+bKxPimy9ewjtMUidm4ma4VUotXIsTIoMUWrPVi7E05rSYTuuFKkooxW5ijtJSEzCjVlra4YZpCyuSd9LcyOjUkknGRSTVr7kxEWLH5iYzDyFvp3mH4ZkETg7FEGPC7YRKIkSG5+zd3kJCtC7PZdwtuAOEEFiNp5nSQMVN8CpSpDX0BKVsoiIigJTMdXE0oiOlN5NsFShPUBhjQhkqq8IgeQCN/JjjqF7Lyk/iGKVneLAsIg7LUPLqiAggpV1WfpUpoqg9Uv4Vkmf7s8yF3KJ8ZRVoRM1TWqIysB3X0FovQ4wgrfTOrjrcvz2KMBNbJZ5Oz3WuZogvji3i154+hd/6kxP4k++dNeuApICKpdcMo7SZoqHcuUV6Xx1fUVCFQdL47tYIeloiRtEdqDyz9Jplj00v4fjZCZweWsDEYtqcLyLp9AQ9TygSxI6+FpMYiwz9w/QMC3HUksz8bxkKszS30tpUS6EXZRl3i3cQ7gAhyhcc3ig/6/hbikaFo7UvKdRZlorymTBEltdZvsFt8gBuMdslPM9Ydyk5ReWYbc5+iiEAty2LtqmMihhzzu0qwwmPTIjF7wUpz2rCPqwUU5Yb7HORl5ca42F/NVpVvtxSw/fCXCIq2c7eBjy6vxOt0bD5bUZ7qDA6S8OVC/E0Tl6YwcvHR/HcGwyh3hzG2+cnMcP8QnH4WqRQ+VoyPsvjivQsWrukbVJoqaPq06y0YOJz1mk8ylKaYdIi3tA8wslRjDBcSjHmkcXP8rgCPzuaw+htr0UnE+MQE+sUw7shEndhIYUQ2eCsv1JdNUzYO1lPczSIiFbJmhrvHtwRQujCe7y0Br4IRUqptT9ULCmmA838epkXSKiQUqKykq8QKZaP50noFYwnYLhSYuxuhF7nqnDIeAOXmDp1ewR+ammGSKByDYl4jLaLPAp/VnoCiYh3I9DsfE5riVS+PNbat9/E3VToHZub8aGHtmJ7d71RnnRei+mc9gIhWuy2kM+sRzpGYvznrx7H//zGaRw/M4YFJq9mlEcXfBUkGSpNz8WR11yAOcZjZppVen2dnp+oprcpD29mqfQKry4MzOCZH17AH/3gAp5+bdiMhGkdkxCjZyj5fHjyUAce2NVi5gw0R6J+aHGiaQ8PFUflBPR8Q3NDEAe2RNFUGyyHUWtfkvcFGzhT7UCuuUTdHWcIPkIjfIG/QtzcSFGYQ4WkVV9ezOcWs78SCjmi2N5YfeYGxtpLySvnilRmlImiuN586nZLCLMuiccvi85n+COrf5Un4XYpvT7difOy3CDkregZi759lGaSV6Nt1y7DTwULVgXMxJgegvGxTwnG+7NxGgkqj5RLnkJhhoiSoeKa8X5aY611qmFirDxAoY7pOqHQRr8HRudx4twEBsaXzEM4JmxieSKQZGoxhRODC3jl9AReOTOBV9+dwFtnJ3FuYA5DE0sMhfImOSZnsJgtmXmEfZui+PiDfbinr9k8safZ6Ym5JL791jD6WU+W3kL1q71aSLi5o9assVK+UV8bMtvvJtwxQnjykyTDALzZ07z48hbNZW9A6+kxoU6FBI5IaUxewO/LxKBFcpJsQwYJFVvKrxsrhXfIYEQX2xGVw+MVFnmo/CYs4qe8gMlrRACXGE9xu8iQBHWMnLYzsW+nNWUetdye1aGrVc38YUt3FG2NIXY5b0aFxhfSxqqLEDpKoZEUWiHJHMly/PI8ItVe87yAZqj1qKWTrEpJNYp15tIMXj0xapZPZGjdZaGdZyqm5lM4NbCAH7wzbgjx2plJvHluGhdGFsx8QoFWXwvxdLSS4hRl/+YoPri3A48f3WKWi2gORe0amUni/748wLwjDi3zUxVqilbL7ujRw0tt6GyrN0+83WV8uBMhk6MCWs+jy0nlK8V5o5VHUCEVxrgVxJCAilSIMYJZuhIKVaRstRVeMeF2i4jjLkfQNi/r0TLs7CTvyCxTGH5PM+yRZOQdWL+e2LtdWfPGsm0ivRlRuz4UwMhqStpbahk+bcfPfmoffuEv7cUeWmN5gRSVWbmFg3BAT5P5cYwK/PRrQ5iYTZgh1pWYJbHOj8bMKlOzfKKyXZ/6HWE5rQzH2sJXpL6qTALNU8TpjaaTBbPm6fMf2IQvPLkLH3p4q0mky8sn2FtqfjafR5y5Tpo5iwMRQrPbfra/rqbaEPRuxB1slWY3pTiyvhLHuktIDCNKTkkGE75UxCTckspvY+l5dV1ew4gUzqxRImm0PMSRoj6l+PzU6JDjYZz1R0WeK926bamQwi0G+lLxXDcIhxSyoHoy7IG9XfjI/Zvw+L09OLiT1rUpbEakFDLJwmroUku4FaqcG17A1Fx5abUJhfhPx+gJPD2PPUpPo2cOqP/lurjPhF70ABoS1W81WZeY/DD5QgPDsA7WuY15zZHdbXj0UDeeYnvup3eQJ5NyO0O4IkaWdWWY47hJqT6JFD4eq4k/hXB3I97/VpEYpQI9QWFx2SuYURvdFTd4c5aTbhMardhPz1HKzFGmaIroDSSaFZcnEAE2GmrODXuNG0M50S6Y8KePocYXPr4PP/mx3Xhkf5ux0lp27SgiayuvOCXBNZK0RAut8EXhkpZhJJhQzyey5kEbKb4DJdUKZeZo+SeXcssynchjKVNEld+H3pYwju5uwU88thX/4ov34hc+ewgPH95klmjrLRnuPEDDuJrAK6mOVfovIooMayX+7zfuMCH8vEgRc6FKtNhGFDqZvEGWuiKy2rzQRjRPoLDDeAGeSA9QYujzHsktcLfG+h2v44jKXuXO/IhATZfySIkiQT+29jbiww9uZXLaAPLkKsVSjuGhQuoBIM05CNqbo8LPx1ImhFHOIKVUufIMWkZ+oK8Rf+3ju/CLf/UI/tEXDlEOG/kHnz+Mv/mZA/jLT+3FRx7aivv2dKKvswGNdQx5KstH3nNp+fsKQVbuLNcrortJdDfhzhKixOpKQeoolZteoSwihIhgrmRZeMFoZsrCGN8srZAwxDIehJ7gPcLt5QcLVUb5430VwXw6P24dUh4pkYZD9SC/1v9s6qg1+YSU24H5zmNTemdTjtdO4DZZ8YXFJLKZrBkl0nHyLMoLmuuDuHdnM37mE/fgn/3UEfzSXz1s5BcpXyIpfuZT+/GpJ3fi4SObsG1zE2oi5Ve/yAs4SftVYNlXSOp86lv5u4Z1NSqmc51tdxPuMCFotXJMajUHoRu2lhivUIHyDCXCyWkjnpyWXcgSrpACL26e3dG4/0ZLgfkQ67um5NkexdB6FEwkXwVstVEeE9q4LP2NQGQIV/vNSJEDRSlOXuGGeeKNYVQymTNhlRkG5XbZJSW43e11Zg2Vwh2d6xBQ4ZrWJEmUG2j7Gl1ZhtqjpR8e1uPWd33VgsBEIoOxqZh5Es+rEO8Guq1jdI0c2UjcQUIw7DHhEDsky6KwSCLlz5IotF7MxigkS1YJMD8d0eOb2YoojDIzwKsIFXVDxbSdQoVftf6rRMdRgcjnbN5PRSWRXBAZtBZJL+mKM7bXYj3nhq9FDu1TPqDJsTitbEpW2qWgsvhFnltbGzTvYxJUlhRaI09xKmN5yQWbx/M06hMOV5nnlqsYf7nDGIcUIolE369HBkGhnYjaWluFupCvPPHH81SnXg4wQ0/19oVpTC+kDMlETqfPbnFfi3SmgPHpJSwspc3sucrj5g0B79zGQ20vL10QohS9q6gCmal0piIpeDIL8GTnXLJYJoGU8P0WKblQ4o3i9+uJep3neclUNXLZsoIK3GtutFaejk0uYJSisX4tmXYSzpU3XNu0KlSzwHoRweBsEkOLGaT5W5CuOs806Kk3vShAMEsseMz4zBJi8YyZOVbRUngRQk/J6ek0zTCvB6TEdcx19nTUoJO5hiEp61I7NI8xOBnHd4+NoX80ZkIn9VfiEMARzbgrT9E+rb86dmoU/UOzZvZb5el6bATuzMQcPYM3fQHe5EV4U6NlxSoywV5eXCfRMCxJIZPKG2VGKZdFx79/oiHIMvhbMEOs15YSvcRsvA4TyW2YzD8EVHeipqZGJxtrqRt9fmAGL701hJfPTJm3YMR44/VAfVkhfEYpNExpwheGX1KGE+cn8c2X+nHq0ozxLEGFJmyXlKSZCrh3SxOevFcjQCGjNFo0qKfWvvfqIEanE8YrKbHWOiSteL33nnY8cqAbkVCVIeTtQhZf3k45y3QsjYHJBPvhMYSQDptbSy+nHGQxnmbLy6FZ2RsVzblaPyXSXyIBXnx7BM+9OYQX35kwS8s7m2tMW3Vtlm/LOuIOzVTzJsTfISEuwJOagkcP05ID5aSZX+QDl2eJuX0VpbzjskLBPY6urHbsChEZcgyTzk52o39hD+L+w4jUNKOpvopllcMHxdmvnhzD0z+4gBdOTeD8EAmxkDCKovhbTtE8O0Ai6IH+ybmEWXrx0vERfO25C0jSu4QVq1PLRAY5ij2bozh6TxsO3dNhllEoJJESatnFN0iiGYYpjmLKOyQyRTy0rxOP39trlHZdwGLKuUgRYzNJvHN53uQtzkSg6lf/B8dj9FpxsxJWcyQpit7rOrOQNA8WXRiaw/Gzk/j2y5fxgxPjZiZ+R0+DeeWM+iZDsRHYwNfQOOBNKzF2nfw/8C++RE8xRKXg3V7WsAqUXxg23B2Q0lx51Q2hV2DcIESGxWQQ/+W1QxgtHMJPPHkEOze1mhWlClVkiBUO/NevHseX/+htFl0y4URNMIAwrWCQFtDDJFfLpCOUBLU9qdiZiWiCYc8iwytHfZVEOyHE3/ixvfjog1tMkmxyAl5OWd8fnhzFv/rtVzFPQujFYIKUNkPC/fxnD+HnP3eA5JES374q6LppFl3e62vPnsNv/vFxs12eQ6Rz2s3qmciXX9DM5AIlLV/nMWb6lkQuKJmnt1A5swnNjWTxz3/qCH7mE3vM20XkRTcCG0Oz94CWKsdcgPlASaZMHoIdvkq0TSMz75e8x8qv2KYRrOtIkZLL+tE/G8V3L/Xh9eE2DC9ozU7IPGJJlav8Y5H8X4ohSyypEFH2oMTvWWPN37k4g2NnxvHKO2N4mcr8Gj/fOjNh3mk0PpMwipum0qQoCr269bYNhj37d7Wht6vebHN0WxNyenWklmyLPIKjjD1NYTQy+VX4sV76pXql+MpLdm5pNOFYazRi+iyiiIiC6ktT4QfZ37OX53Dy3JTxCMf5eZr9PD+8gMGpBOaSOXpTDza3htGmdzWFqzaMDALv5B0ATZUnvwBvVkOuVAgq4F0lUviV4H1b9dhrSDHnRSpdhZeGe/Af3rwP/XO1qPPnzOsmq1yvg9GHwhmFC/IAUhIln+X1RF5Eg160hHxoCvrM70Z+toZ9/PTSa3jMsYsMdxZ5LfVg/4P7OvClv3IYB7a3GuU23k3gpxL3eCKNABMhjTAZxWR9epGAXi7WUl9dPnYDcHBHG/72Zw/gHhLDEIBGT6GaA5Nom/5eWTulfjewn1oyom5oZl3Lyj+wqwVb2iNmEGAjCXEHcog8vIV5+GaegSd+ib+dRX5UDDqG5WU+d0p4P5YVxg3lCiu9wk1IrujDULweX7+0A88PbcKlxSgtsQc9DF8+fF8vorXvVTy1Q2/qbmsImafh9IhmnDlDLFMy7yvScmkpb5KKJNFLfvWC346GIHb0RnE/84UP378ZD+zvQl931OxzRl/0KQJOzCzh3OCceRPgIq2tlmkksyWGKtVmQm5XX4tZRKiwq8LXdYM8RVgvU6NBaG+MoD7CUIfbY2zHEj2Wnqcw/WJfU/p0hL+baqqwtbMWh3a24tGDXXj8SK+ZpdfL2VycWndsMCEYM5YS9AxT8E0/C29ikJv0VBYvizrFG25SB32/Q2LWBZZ15gq0byVxblA0QFZgEj2VrsGxqXb8z9P7cWa2yVA+qKUW3fV48nCPebOeRlLckJLcs6UZ9bSMip313APNB6MvL/z0KMoDQgxtvPz0MqeQl+lqimDf5gZDhscOdeOJ+7dgS1eDCZN0vR0vZAjBz5n5BEan42a0Rx2vooUNMlfZ3FGHh5lQb+5s2LDnEjTCpTZv7qyn1BlvJ+LFafXzzCFLbLP66WPfAvyUqH1VVPpdvG737WgmEXrwyMFuHNzdYZ6wk2fdSGxgUk2VYKe9qXF4Y+8iMPob/DzFm9TCfYqnK9ig2tdEhQwrOXGrSBWraNXD+MPLO/DsWA/6Fxpo9fwm/NnbXoMP7m3HF57ag4ZI+SVcbkgHRZIYQxr9dSDlEFqRGmMSqeFRLbnIM5H2MeHUTLLeiFHPcmQ9tWJUDwMppnZyhtWUWs836y8OTczrGYjy8KZCDj181E7PZN4RSyXcAD4YOJ5K8ycaTtVIkv5SkCbZ4um86aeyKqXbWkiohYzV7Fsj26VnO9Q/DbNq+1p9XE9sMCFo2RbOMVx6lR7iG/Am+9l1PVd9Z1KXDQPdTKHkQzIXxIVYI96eb8W3hjfjxJweAOJuKl01u//UgXY8Sev24JFNZvZ2tXcuCVIaKaliaiWaaSkKlddZOqFnCPQ2PSmG3s6hPEGKLWu70uushFO2RMqk4535hvLwaFk2GmzGclv0T4sP1Vf1UdXLQGlyUB5Fnz6NSPF4089KO+8ENpwQvkmSYfi78MRPw6Ol2Vrg9yMOj59xOD3DcKwdXxvcgl8/v4sJa/kteIKPNzrCWPCnPrITT96/CX09TUaRr6+8/J9yGX3oUPO1rC1SIkcpdNzN6sfKc1T0TRaxrnDqNuuq9IPijMTfTj9vFxurnRpdSo3Cu3gMnqyWZ/+oewb+RzIMLrXghdHt+N8Xd+AHk5201ApZpGJl6D2peuCmoUFvsqihVbxyk68FHaLwQZAylKVsUd24FSVZec4tFLGuUI+cXpl+rqIat9LP28XGaaiyZb31IjMKT/wMzLPLP+JIF/2YykRwfLYT3x3ehj8e2oJ35qMI+/VG6yt3T1ZPbl+vko/WB41S38zNFSnMP57klj+PWNnH97ufG0QIL+PoNHxLl5lUz1a2Eerrj5q4cJ65wlfOHMXv9e/Es1PNyNEzVJMMK9ERDeH+7U1o46fWJMkCWvxoYGMIIQ3Ip+GJDTJvWGQtEW5bn9WUdwxSYl8JS7kQ+hkiPTO+Gd8c3YIXJ7txeqGBnkLvk9BTai7WyLoxCW6vC+LIzlY0aVmCIcPajCgHRFf+3Szc57r/3Qpu9VznPPe/a+FGjnm/sGEhkyeXhGdpiCFTEiW/3tp3ZfnzjwQYAilfmEhH8dLkVvzqqYfwW5fuwWUt5ebuSCDPJHqFC9EoUiqL1tpqHLynHfUkxLXWCBm1oPG4Sm5SUd5zvktuBlede5ttuNbppnT3sdfBjR63XtiQUSY9++CdPwn/2a/AEx+lt8hU9tzF0DUvpqi8eaQ9DRhMtuDkfBvemWvG6cUmnI3VIpH3o9q3+tBpoFBAdbEIzUd/8tGt+NlPHzCztGaZ8iqEkGJki3km39nKljICXj8CPoqXHpVt0pLotaBy0zy/YGY3y/DxvKAvwDyGto7nXy8mVztIWVNOtpBDnv0IVwUR9FdVjlgbGr7V0G8ql0Eim0Iym0aE54aqQsttUNkOVJdQ5LZEloaSu2p47FoKbybxeJzKiQTKudhGYwMIUYI3Nw3v1MsInPlv9BBxlLyae7g7YS6xFIeSyqTNH0WfKPXg2NwWfGdwO84shTGRqULEnzdDq26YPx5fQaCQQW2ghM5oBJ/64C588RP7zTMMqym0FEM3dyQ2iZHFqcrWMoL+IG8+k/FwjVGWap8U061WPJ/nSoFj6TjG47NI6y8aVSAy1QbDqKuuRbS6hsm+cpi1FUmEyZAIgwtjmE3FSIosNtd3oLu+nR7wylKQldB2ESiWSWAsNo2Z5AIW0glEgyG0hqPojXaZfjjnO33WOUs8Z3B+xPze0byFfa6+qh59T+bSLG/JXB9dh13Nm8tDtJVjNgrrTAhapVIBvsnX4J/8IQKTz0OvtC94yn8t826ET0rNe6GX9p6Y6cRr01344UIbBpJ1tGJBxPM+ZIoekyu47pkhQ1DPBVdIsVC/iOYOHz65ZzMe27UdD2zbZsiw0kIv33hu/v3T38YfUNyQNayriuBQyw480LUPj2w+aM5xiCUlVaL+zsRFvDF6Bs8Ov4Gp5LzZJ3i0nwr2cOc+/Hjfg+isa0VdMLKqp1C5RjkXJvB7p/8MJ6cu0ioX8dmdT+DHtz+CxnA9qryBFXS80oYfDpzEyyMn8Mbku5hOx8zjov58HDui7fjigb+MHS1bUR+sMX0VVF//3Cjbfg7fvfg91FQH8bNHvoguEjAUYE7G89V/kfj1kdN4afA43pw6gz2tffjFo180dV7LY64H1jmHUM+L8MbOw7NwBlrSXLrLkmmpoxy5PgslLyZSUbw1240/Hd6GPxvfhhdm+nBsth39sToskgy6/FUkQ0A3gvlAuuA1T5MikEOhNoVs4zyS7WNIt0yjqiONPTta0NNavyoZHOiJsTgNxWVa5ZNT5xlypNFAa95T30bieWkVJ6hoJ/HO9EWjjE6oYUClktJMJxZwbnYYb00NYI552qaGdrTXaFWpl+f149WxM3ibpJGV1baryiCknFJseZhjk+dxcX4Ml1jv8dkBDMSm6H0SJnxacZopRx5lhvW/NfEuXh09ZcI+eYUdzb3oqG1GLQkdMCGT8QvOieb3Ir3a+ZlhhqJD6F+aMf1xP6nHn2Y2eyQ+bdp1mWRdZP90/so+bATWnxDFLJPpU/DEjjOhzFChNr4TNwM5XXkFkSJbCuBkrBv/Z/Ag/snbj+Er/Tvx1mItt3voxvXe2TKMN8jn4clp1MmPHAlSimSR6FjA/LZRTO45i3TvCGpaM9jV1oVOKsVaZBCMQsXnTRwdDoTxY30fwD8/+tfxax/+J/hbBz6N/U3bMRifwJn5y2vObiu2nqPS5rxhfGDTw/jyh38Jv/rBv4ef2f9JtIQaMLo0jRdH3sFMSn/cpJxPuCGKyBJfXBzDC6MnEfKH0VPXA1+V+g+TD7hzk2WwHCn1ualBvD5xGkOJCXy87yH8ywf/Gr785D/Ev37sS/gbh38SO1v6GOqUX68vSJmV3yjUmyVJM746VEU6EI00su6yd3Bjmu0eZhjWEmlFd02HIfWdwDrVoqvNSxwfgX/k+/CkFukZeDFE97sBekVmYRHZnAeTySa8ObsV/+vyIfybk0fxtf5NOD1XR4vOBJH90EBRdb7APKiIRM5H5eepwSzmG5aQ7RhH09YLwJbzWOq+hGTTODLhRXqLIp7o2o3PbLoP0So9N31tKI6ep1Ik8xlaUh+6ad17ox1GgeLcN0mFiwYb0RZuKV/aVXCJlv3C0iy21TRjZ30rE+GQSTyD/gA8DFtrmHt0hRu57b1/g0HKmWLdA/PjeHfqEj+HsIcx+tGOXfSGHsSZ983zHhaKev76ahXRuSJKksYuw8+8NpJw8ggRtqGjpgXttS0m95EXkqI7IZfaMZeN4zLJWheIoDvcjCrmPA5Utnghz7SQUU4yhxaGXO3hBlPWncA60o5WNz4I3/jzNIExllxZ5v0+wKRevFmKhzPFAGLZACYTAVyKMTya68RzU1vxfwd3439dvAcvjLViZKkKVfQIPoVBfno4fxqlQBrJ6hRy4TiyzA+WmmaR65hEpHcQpc5BJJtHka6ZhTeYQdQXwmOtu/FU534m1sE1rbqgm54t5GkB5xk2pVGkwqWLeVrNGMOWEVxeHMdcLomt0V5sp8gyXl1aeVHfSGIeQ8lZNFeHqPx+hlDz7Mc0+7lg3uDXEYlid1Mvw5fyY6tuSLliDEPeIRkuz7MfbMeelk3Y19ZnQrYE980kY8iTWCstswnheH6AxKuSZYcPE2zHEMOssXg5BKqt1l8iYqis26D/VaDvcyTbUHwKTQyrNoWbEHCH1DI+vGfyIks0CsnsEr1dnfF4osPaV3X9sA4aqyJoW/VG73Q/c4fX4NE7Vd8nSH1MSFSMIcMbPcoc4ZXZvfiDwSfx7849hF89ux+/P9TN2LQa9YUUAnpKycvjA3lkI0tYapxErHsC6a2D8O4+hfT204hvOo98JxWnbh4z3qx5Hby36DPS5Yvi0chW7KrtonuPGovqVgI3dFMVvqRlnWfH6SVSiJE8XznzDP7R938dX/ruf8Izl183Svyxbffj0U0HDIH0wL4DkS1HQhWLafYvhoGlSbzM5Pprp57Fr731J/jDCy+hrjqKIx178NDm/WhiYpynpXdI4bRhOrWAb15+A8lcDg937MeWaCfqQrXw+iKI00PO0UOonpVQOQ202rtbNqO3tsP09JsXX8JXTvwp/sexb+DszKAxRJKryMDfKi9OYzmbnkFzKIIehpYK29yQ95yKz9E7p+Aj0ZvpHaJsVzknWyWEW2fcPiFoETw5Jm5Tr8M7/y6/J3jX3nshbwdSseuJxk1zhSq6+nomhx14gV7gG2M78O3xLXhmuhfPLXXh5VQdTjI0GqTyJ+uXEGyfQqZzAnGGQsnWMWSbJ5BrmkGmaQ5ZegQ0zKJYO488iYIQY+qqHNKeonnIz8P6JJtqWvFUzxFsqW+nxWS4wuuxNqTe5XClPzbBXKKA9lATGhm3K8Sp8uqFZjnmKfqzVRnk9CeFK+eV/68n8/K07nEmsmmSr0TyhAzBTk5dxnFa/InkPA627cDB9p1MshWSBIxHEUySS1GiPcDc4dT0BfN7b/M2hFi/j/1pDzbwOhbogeaMpV4NmiuJVtfi/s7deKL3MMOaKCaoxM8OvYXXSc7+uRFDQtXnQCNQS8x7ltj2HNveGKwlKWT5jT9fRpZ9nkvFeI309zC8JEOdGSUTKt3YUKxLTONJTsF38WvwTh5Hyae/DHT9SZ0bhS6phv/9vBrXEg8VPZMLYXCpHS+N34P/fukJ/NuzH8KvX9iDP5lpxTHe7Pm6OfjaRhHqGUNw+zC8ewawuOc8pnedxWLfWWQ7h+AhEbI1C8hVpVg5yy154Sv4jHhZx0psZuz/qd2PoruutWLFrn/X4rkMLsYmTd+ONG7BT+96Av/40OfwC4d+AtsbezG0NI7vDxzD8fFz5vhlxeKHlHRqac5MhkX8Qexv3IRO5gqzGSaqtK5NoXp8ePO9JMVWo+z658CMNnHb4OIkzk5fxtjSGHOMAOvsMe9DyjGR3l7bSALlmaNMIkGirQZTKsv56Jb78KUjn8Xndz5Jb9GG0/P9eH7wGF4aPGkU2oRNOp7HisiziUWGYyn+9qKeYZWGZOVF5E0cZGgQ5hg+Kr/SE3cig0Iwdz82ErdBCDXQS69wDr7JV+BNMcTIL2n5jwlZ1kNUQ4EXb8kTwmwpjEl6AMl4MYgBTz1OlerxSjaCr8ab8Rv0Cv9xqQW/U6zGc7VLuNg+htnNFzHbdw5LvReZEA+h1DoJ0ANk62YQD8Yw56cVNn9spdwb8z+SwMhVdutqlOglWsK1+OLWR/DRzgPLN/56ZNDNV6KaYI4wlZhEmDd8d7Qb2yjbm3uwt7WPYVeTGarOk1wSB1IqhRfJbMrE/Uu0ojV+Pw517sRT2x/EX9n7IfTVNyPNUGiAFnqGOYV7Uk4KpdYlSahnh0/gu6OnkOC2t2cHGLL9Gb584o/xB+efx+mFEQylZjFFS54iwVaONKkcKarK1mx2W00jHty0DztatyLvCWI0ucgwjp7XFW4pjJTSLzAvSBTShuB1JIOUXaNdapjK1XEi+sDcGJPqDHO6CBpI8DoSQnMQqnejiXHLhNDNV0yYmjmD+PgxLKYXsVgoYolWVBKjLBa8mKfM5q+WacpEnskYZYTfz+e8OJfzUfxXydm8H+/mAjhOy/8m5Y1sEK8bCeHVfA1ezEXwTCaEr6dq8PuJWvxeKoJv8MK/HlzAWOMIkm0DSHT0I9s2jFLTBDwNcyjVxpAL0VIFUoh7CrzhvMFsq0Qh0PVQIlnqmMjubGjHpzfdj6MtO8wNlayVO7ih5RqJbMKMouiBolbGyJEq/fHygEw4y+ctp7JpdjYc0EKQcqlqmRRJM7jDC5MMPZJmMktEerBnDz7adz+6aqKm7AtzwyaEUa4gPhgl5hfNF0zGZ/H6xLs4vzCKrvoueBhSXeT3M7ODuMwwTqNHcVr3WJZJLevKuxRb91yx/TzJqJlpDf0qU2iqqUd9WKsR/Obdzlneg/I7XcvXQ55JIdRMap5hEz0vQ67aCiFMAwV+SOE1J9O/MM76M0zcw+Z6ZApZMyOufUr0b+Q63ypuaaZaVidB9zpLKzT3zu8gNvYSirq7Zka6PIymuDXDq6O/RZZeoWgp/k5WmD7N/WeUKJZ03tUJlnyEGQolbws8zrkQZrusKP9l6WLjRT/STHBNPYyvfLT6OR5lLh0V2EtL5mVocLuQZyiy7E+0H8BTnQfxePchxs/1y+26FqSUUp45WtDvMXH+lZd/G1vruvBY1xHs6egzbT01NYDvDx/DCMOVv3vgM3iSoc/2pt5lndGyjBPjF/D0mRfwzPhJbcCXn/h7ONDSZ7zJl57/b/h2/+u4t3ErPrvrUXyBXkNJqvRSFvbS7DBeHzmD3z71/0gEL/7+vZ83E2rO35mbiM/g+NgFfH/kbUyn5/ErH/g5PNpzyJBT91wEODV+EaNLMzSAS9jS2GmWZ/QvjDF/eBNP97+Mz+z4ID6x9SE80nPQhEXyDMpjhhki/tnZl/At5hknF4fwnx/7eXxsy1GxzFw9la/+vcL2/afX/hBjJHQV79tntj6ILQxHRczOujZ01reYgQLlMRtBjJt+64ZxWfxvlHHom+Nn0T99HoPJOMZ8TRjz1GEcYSOMTjHCMEefkknPFRmjjFOmKSM8doD75zw1WDQSvkpiDJfidMUJbxBJb6giQaQ81cgwV8l7q+FVQkoLGw74EeanEsQIpdZXjVrurwsETfJZa7bdurRU1aAn1Iinug7hkfa9aItEqWhX3rd0Lei66bhZWtbLtICy4iG/Xj9TTUucMRZd63Y0b7C3dQse33QEfdEuo0zmbF5zWXzF/6+NnTEE6qWCPN57kMmp/ropzMy0ZrCD3gC2MS842L6tEvLQKLCAk5P9+MHg2/QUGexv3oLP7X4C21lHd20zvUsLQ7Agivk8lXHaeKCHu/dzX6sJjaSwItck2zlMT3J6ZhCjTLwvLo7jLL2LDGRnbRQf2XI/jnTsQjRYZ0IgQSHlNPv96vBpLNCDOXnO5vp2YzgF48UoGr794cgpsz3Ca6Mh5PnUEsaSc8wlQubcSFXYEHwjcFMeQhdF/8T67w+8jd995zsoaUiPtk9dWg1rFb68nV+ujlI3ALp2zgPPt4HW6npsjbThyW33YV/bNhMGODf0enCu20Utt6CVf37obcbzjKelBryuISqdxuaPdu/Bka7daK9pMiR3hj6l0LKgLwyewG+99TR6qcB7W7bgIzseQCuJqbL/6NSzeGnopBnr//DWo/jpA08ZJdZQrer4/TPP4ndOfAsfoMJ+oHsvHuu7z0yMlUeEvMZ7XZwZxp/2v4IzJOzfOfhjuK9jtxlmdQgxHpvGq6Pv4luXXsWZ2BimNVcQqMEDLPNjW46Y0S0NMLiHekVqkeY3jz3N3BDY0dCFD+84Sg/TZfrnDq3eHD+Hr7z9DeONdNXUb9Wte/ihTffika59aCeBq3ltbsQQ3SxuOmTSjZWr0iTMhdmRyta7HOLC7fOBnqcaDYEwOupamOzVGEW7GbetG6hYeJaKN07rKqVxYJJUKo6SVM1nVPO7FESKLqj5irHHaaHfnR5EPT1eY6jOhBBBei+14/L8uLHgKcbcPWyjRo/kIVSv7ttFJsznqOid4SZ0sJ42kk4KJ1Jrv0aptCxjkOHNAkm1u2kTydZgwhOH0BoynmKoPEhvNptbMol3WO0ORemxWtHMcEYz5lqv5VwZ9WOR5b1LryIv0MhQqqO+1YRi7sV6qmMmtYizM0O8Nq6h+8r969YsuJZ6sPxrzffcDm55tavct58X6i8idLNuddWlrJ0UxM/rV77TV0PlFpQ4rmH93Nddx2g40zlWHkRlCxrNchNOUOjiTIRJubVEwq1UUki1T3WIKMpLdJy7LWY/63BG1hzoOGfYeTVFVXkKL1WHwgLNdThkd0Pt13KW1a+NBkGubs9645YJ4Vy8v4hY66bfKMrXrvxtJUzJ17jhV1/38jIOB9quf8Jq5Vxvv4Pycepn+biVcJfj4FrlCTq63G5Tsjl2taOvPu5qXK+O9cAtE8LC4s8jbmNizsLizx8sISwsXLCEsLBwwRLCwsIFSwgLCxcsISwsXLCEsLBwwRLCwsIFSwgLCxcsISwsXLCEsLBwwRLCwsIFSwgLCxcsISwsXLCEsLBwwRLCwsIFSwgLCxcsISwsXLCEsLBwwRLCwsIFSwgLCxcsISwsXLCEsLBwwRLCwsIFSwgLCxcsISwsXLCEsLBwwRLCwsIFSwgLCxcsISwsXLCEsLBwwRLCwsIFSwgLCxcsISwsXLCEsLBwwRLCwsIFSwgLCxcsISwsXLCEsLBwwRLCwsIFSwgLCxcsISwsXLCEsLBwwRLCwsIFSwgLCxcsISwsXLCEsLBwwRLCwsIFSwgLCxcsISwsXLCEsLBwwRLCwsIFSwgLCxcsISwsXLCEsLBYBvD/ATmCIrt/kyKCAAAAAElFTkSuQmCC;" parent="1" vertex="1">
          <mxGeometry x="1293.6799999999998" y="310.88" width="66" height="60.61" as="geometry" />
        </mxCell>
        <mxCell id="vHoobKAGo53R7YxeHOst-64" value="" style="group;rotation=0;" parent="1" vertex="1" connectable="0">
          <mxGeometry x="-150" y="300" width="240" height="100" as="geometry" />
        </mxCell>
        <mxCell id="QIrvTC7RfS_J8TlOLp5B-26" value="Application2Person" style="fillColor=none;strokeColor=#5A6C86;dashed=1;verticalAlign=top;fontStyle=0;fontColor=#5A6C86;whiteSpace=wrap;html=1;rotation=0;" parent="vHoobKAGo53R7YxeHOst-64" vertex="1">
          <mxGeometry width="240" height="100" as="geometry" />
        </mxCell>
        <mxCell id="QIrvTC7RfS_J8TlOLp5B-32" value="Mobile (Push)" style="sketch=0;outlineConnect=0;fontColor=#232F3E;gradientColor=none;fillColor=#232F3D;strokeColor=none;dashed=0;verticalLabelPosition=bottom;verticalAlign=top;align=center;html=1;fontSize=12;fontStyle=0;aspect=fixed;pointerEvents=1;shape=mxgraph.aws4.mobile_client;rotation=0;" parent="vHoobKAGo53R7YxeHOst-64" vertex="1">
          <mxGeometry x="110" y="25" width="26.28" height="50" as="geometry" />
        </mxCell>
        <mxCell id="QIrvTC7RfS_J8TlOLp5B-33" value="E-mail" style="sketch=0;outlineConnect=0;fontColor=#232F3E;gradientColor=none;fillColor=#232F3D;strokeColor=none;dashed=0;verticalLabelPosition=bottom;verticalAlign=top;align=center;html=1;fontSize=12;fontStyle=0;aspect=fixed;pointerEvents=1;shape=mxgraph.aws4.email_2;rotation=0;" parent="vHoobKAGo53R7YxeHOst-64" vertex="1">
          <mxGeometry x="190" y="49" width="40.04" height="25.15" as="geometry" />
        </mxCell>
        <mxCell id="QIrvTC7RfS_J8TlOLp5B-28" value="Mobile (SMS)" style="sketch=0;outlineConnect=0;fontColor=#232F3E;gradientColor=none;fillColor=#232F3D;strokeColor=none;dashed=0;verticalLabelPosition=bottom;verticalAlign=top;align=center;html=1;fontSize=12;fontStyle=0;aspect=fixed;pointerEvents=1;shape=mxgraph.aws4.mobile_client;rotation=0;" parent="vHoobKAGo53R7YxeHOst-64" vertex="1">
          <mxGeometry x="26" y="25" width="26.28" height="50" as="geometry" />
        </mxCell>
        <mxCell id="QIrvTC7RfS_J8TlOLp5B-31" value="" style="whiteSpace=wrap;html=1;shape=mxgraph.basic.oval_callout;rotation=0;" parent="vHoobKAGo53R7YxeHOst-64" vertex="1">
          <mxGeometry x="40" y="35" width="29" height="15" as="geometry" />
        </mxCell>
        <mxCell id="vHoobKAGo53R7YxeHOst-70" style="edgeStyle=orthogonalEdgeStyle;rounded=0;orthogonalLoop=1;jettySize=auto;html=1;entryX=0;entryY=0.5;entryDx=0;entryDy=0;" parent="1" source="vHoobKAGo53R7YxeHOst-33" target="QIrvTC7RfS_J8TlOLp5B-39" edge="1">
          <mxGeometry relative="1" as="geometry" />
        </mxCell>
        <mxCell id="vHoobKAGo53R7YxeHOst-71" value="Operador" style="fillColor=none;strokeColor=#5A6C86;dashed=1;verticalAlign=top;fontStyle=0;fontColor=#5A6C86;whiteSpace=wrap;html=1;" parent="1" vertex="1">
          <mxGeometry x="1203.68" y="468" width="180" height="100" as="geometry" />
        </mxCell>
        <mxCell id="vHoobKAGo53R7YxeHOst-72" value="" style="sketch=0;outlineConnect=0;fontColor=#232F3E;gradientColor=none;fillColor=#232F3D;strokeColor=none;dashed=0;verticalLabelPosition=bottom;verticalAlign=top;align=center;html=1;fontSize=12;fontStyle=0;aspect=fixed;pointerEvents=1;shape=mxgraph.aws4.users;" parent="1" vertex="1">
          <mxGeometry x="1263.68" y="495" width="58" height="58" as="geometry" />
        </mxCell>
        <mxCell id="vHoobKAGo53R7YxeHOst-75" style="edgeStyle=orthogonalEdgeStyle;rounded=0;orthogonalLoop=1;jettySize=auto;html=1;" parent="1" source="vHoobKAGo53R7YxeHOst-73" target="vHoobKAGo53R7YxeHOst-71" edge="1">
          <mxGeometry relative="1" as="geometry" />
        </mxCell>
        <mxCell id="vHoobKAGo53R7YxeHOst-73" value="Portal Backoffice" style="html=1;whiteSpace=wrap;strokeColor=none;fillColor=#0079D6;labelPosition=center;verticalLabelPosition=middle;verticalAlign=top;align=center;fontSize=12;outlineConnect=0;spacingTop=-6;fontColor=#FFFFFF;sketch=0;shape=mxgraph.sitemap.page;" parent="1" vertex="1">
          <mxGeometry x="1010" y="483" width="120" height="70" as="geometry" />
        </mxCell>
        <mxCell id="I72MAz_ozM4IoX0Dvax0-1" style="edgeStyle=orthogonalEdgeStyle;rounded=0;orthogonalLoop=1;jettySize=auto;html=1;entryX=0;entryY=0.5;entryDx=0;entryDy=0;entryPerimeter=0;" edge="1" parent="1" source="vHoobKAGo53R7YxeHOst-33" target="vHoobKAGo53R7YxeHOst-73">
          <mxGeometry relative="1" as="geometry">
            <Array as="points">
              <mxPoint x="920" y="340" />
              <mxPoint x="920" y="518" />
            </Array>
          </mxGeometry>
        </mxCell>
        <mxCell id="I72MAz_ozM4IoX0Dvax0-2" value="Rede Interna Banco" style="fillColor=none;strokeColor=#5A6C86;dashed=1;verticalAlign=top;fontStyle=0;fontColor=#5A6C86;whiteSpace=wrap;html=1;" vertex="1" parent="1">
          <mxGeometry x="980" y="430" width="440" height="340" as="geometry" />
        </mxCell>
        <mxCell id="I72MAz_ozM4IoX0Dvax0-4" value="Rede Externa ao Banco" style="fillColor=none;strokeColor=#5A6C86;dashed=1;verticalAlign=top;fontStyle=0;fontColor=#5A6C86;whiteSpace=wrap;html=1;" vertex="1" parent="1">
          <mxGeometry x="980" y="260" width="440" height="160" as="geometry" />
        </mxCell>
        <mxCell id="I72MAz_ozM4IoX0Dvax0-5" style="edgeStyle=orthogonalEdgeStyle;rounded=0;orthogonalLoop=1;jettySize=auto;html=1;entryX=0.5;entryY=1;entryDx=0;entryDy=0;" edge="1" parent="1" source="QIrvTC7RfS_J8TlOLp5B-20" target="QIrvTC7RfS_J8TlOLp5B-26">
          <mxGeometry relative="1" as="geometry" />
        </mxCell>
      </root>
    </mxGraphModel>
  </diagram>
</mxfile>
